<?xml version="1.0" encoding="utf-8"?>
<!-- Generator: Adobe Illustrator 27.0.1, SVG Export Plug-In . SVG Version: 6.00 Build 0)  -->
<svg version="1.1" id="Layer_1" xmlns="http://www.w3.org/2000/svg" xmlns:xlink="http://www.w3.org/1999/xlink" x="0px" y="0px"
	 viewBox="0 0 965 450.5" style="enable-background:new 0 0 965 450.5;" xml:space="preserve">
<style type="text/css">
	.st0{fill:#7331CF;}
	.st1{fill:#8338EC;}
	.st2{fill:#DF0060;}
	.st3{fill:#FF006D;}
	.st4{fill:#DC4B06;}
	.st5{fill:#FB5607;}
	.st6{fill:#DFA70B;}
	.st7{fill:#FFBF0C;}
	.st8{fill:#FFFFFF;}
	.st9{font-family:'Raleway-Black';}
	.st10{font-size:165px;}
	.st11{letter-spacing:164.4;}
	.st12{letter-spacing:160;}
	.st13{enable-background:new    ;}
	.st14{fill:#2F3B55;}
</style>
<path class="st0" d="M727.3,81.2l48.8-48.8c43.2-43.2,113.3-43.2,156.5,0l0,0c43.2,43.2,43.2,113.3,0,156.5l-48.8,48.8
	c-43.2,43.2-113.3,43.2-156.5,0l0,0C684.1,194.4,684.1,124.4,727.3,81.2z"/>
<ellipse class="st1" cx="854.4" cy="110.8" rx="110.8" ry="110.5"/>
<path class="st2" d="M495.7,81.2l48.8-48.8c43.2-43.2,113.3-43.2,156.5,0l0,0c43.2,43.2,43.2,113.3,0,156.5l-48.8,48.8
	c-43.2,43.2-113.3,43.2-156.5,0l0,0C452.5,194.5,452.5,124.4,495.7,81.2z"/>
<ellipse class="st3" cx="622.5" cy="110.8" rx="110.8" ry="110.5"/>
<path class="st4" d="M264,81.6l48.8-48.8c43.2-43.2,113.3-43.2,156.5,0l0,0c43.2,43.2,43.2,113.3,0,156.5l-48.8,48.8
	c-43.2,43.2-113.3,43.2-156.5,0l0,0C220.8,194.9,220.8,124.8,264,81.6z"/>
<ellipse class="st5" cx="391.5" cy="110.8" rx="110.8" ry="110.5"/>
<path class="st6" d="M32.2,81.4L81,32.7c43.2-43.2,113.3-43.2,156.5,0l0,0c43.2,43.2,43.2,113.3,0,156.5l-48.8,48.8
	c-43.2,43.2-113.3,43.2-156.5,0l0,0C-11,194.7-11,124.6,32.2,81.4z"/>
<ellipse class="st7" cx="159.8" cy="110.5" rx="110.8" ry="110.5"/>
<text transform="matrix(0.9 0 0 1 136.23 170.0202)" class="st8 st9 st10 st11">I</text>
<text transform="matrix(0.9 0 0 1 576.0098 170.4802)" class="st8 st9 st10 st12">T</text>
<text transform="matrix(0.9 0 0 1 810.7002 168.9601)" class="st8 st9 st10 st12">F</text>
<g class="st13">
	<path class="st14" d="M33.6,325.2v40.5h-8.1v-40.5H33.6z"/>
	<path class="st14" d="M68.1,336.7c2.4,2.4,3.5,5.8,3.5,10.1v18.8h-8.1V348c0-2.6-0.6-4.5-1.9-5.9c-1.3-1.4-3-2.1-5.2-2.1
		c-2.2,0-4,0.7-5.3,2.1c-1.3,1.4-1.9,3.3-1.9,5.9v17.7H41v-32.1h8.1v4c1.1-1.4,2.5-2.5,4.1-3.3c1.7-0.8,3.5-1.2,5.5-1.2
		C62.6,333.1,65.7,334.3,68.1,336.7z"/>
	<path class="st14" d="M93.5,340.2h-5.6v25.5h-8.2v-25.5H76v-6.7h3.7V332c0-3.9,1.1-6.8,3.4-8.7c2.2-1.9,5.6-2.7,10.2-2.6v6.8
		c-2,0-3.3,0.3-4.1,1c-0.8,0.7-1.2,2-1.2,3.8v1.3h5.6V340.2z"/>
	<path class="st14" d="M104.1,364.2c-2.5-1.4-4.4-3.3-5.8-5.8c-1.4-2.5-2.1-5.4-2.1-8.7c0-3.3,0.7-6.2,2.2-8.7s3.4-4.5,5.9-5.8
		c2.5-1.4,5.3-2.1,8.4-2.1c3.1,0,5.9,0.7,8.4,2.1c2.5,1.4,4.5,3.3,5.9,5.8c1.5,2.5,2.2,5.4,2.2,8.7c0,3.3-0.7,6.2-2.2,8.7
		c-1.5,2.5-3.5,4.5-6,5.8c-2.5,1.4-5.4,2.1-8.5,2.1C109.3,366.2,106.6,365.5,104.1,364.2z M116.6,358.1c1.3-0.7,2.3-1.8,3.1-3.2
		c0.8-1.4,1.2-3.2,1.2-5.2c0-3.1-0.8-5.4-2.4-7c-1.6-1.6-3.6-2.5-5.9-2.5c-2.3,0-4.3,0.8-5.8,2.5c-1.6,1.6-2.3,4-2.3,7
		c0,3.1,0.8,5.4,2.3,7c1.5,1.6,3.5,2.5,5.8,2.5C113.9,359.2,115.3,358.8,116.6,358.1z"/>
	<path class="st14" d="M146.8,334.6c1.7-1,3.6-1.4,5.8-1.4v8.5h-2.1c-2.6,0-4.5,0.6-5.8,1.8c-1.3,1.2-1.9,3.3-1.9,6.3v16h-8.1v-32.1
		h8.1v5C143.8,336.9,145.1,335.5,146.8,334.6z"/>
	<path class="st14" d="M206.9,336.7c2.4,2.4,3.6,5.8,3.6,10.1v18.8h-8.1V348c0-2.5-0.6-4.4-1.9-5.8s-3-2-5.2-2s-4,0.7-5.2,2
		c-1.3,1.3-1.9,3.3-1.9,5.8v17.7H180V348c0-2.5-0.6-4.4-1.9-5.8c-1.3-1.3-3-2-5.2-2c-2.2,0-4,0.7-5.3,2c-1.3,1.3-1.9,3.3-1.9,5.8
		v17.7h-8.1v-32.1h8.1v3.9c1-1.4,2.4-2.4,4-3.2c1.6-0.8,3.5-1.2,5.4-1.2c2.5,0,4.8,0.5,6.7,1.6c2,1.1,3.5,2.6,4.6,4.6
		c1-1.9,2.6-3.3,4.6-4.5c2-1.1,4.1-1.7,6.5-1.7C201.3,333.1,204.5,334.3,206.9,336.7z"/>
	<path class="st14" d="M217.5,340.9c1.3-2.5,3.1-4.4,5.3-5.8c2.2-1.4,4.7-2,7.5-2c2.4,0,4.5,0.5,6.3,1.5c1.8,1,3.2,2.2,4.3,3.7v-4.6
		h8.2v32.1h-8.2V361c-1,1.5-2.5,2.8-4.3,3.7c-1.8,1-4,1.5-6.4,1.5c-2.7,0-5.2-0.7-7.4-2.1c-2.2-1.4-4-3.4-5.3-5.9
		c-1.3-2.5-1.9-5.4-1.9-8.7C215.6,346.3,216.2,343.4,217.5,340.9z M239.7,344.6c-0.8-1.4-1.8-2.5-3.1-3.2c-1.3-0.8-2.7-1.1-4.2-1.1
		c-1.5,0-2.9,0.4-4.2,1.1c-1.3,0.7-2.3,1.8-3.1,3.2c-0.8,1.4-1.2,3.1-1.2,5s0.4,3.6,1.2,5.1c0.8,1.5,1.8,2.6,3.1,3.3
		c1.3,0.8,2.7,1.2,4.1,1.2c1.5,0,2.9-0.4,4.2-1.1c1.3-0.8,2.4-1.8,3.1-3.2c0.8-1.4,1.2-3.1,1.2-5.1
		C240.9,347.7,240.5,346,239.7,344.6z"/>
	<path class="st14" d="M265.8,340.2v15.5c0,1.1,0.3,1.9,0.8,2.3c0.5,0.5,1.4,0.7,2.6,0.7h3.8v6.8h-5.1c-6.8,0-10.3-3.3-10.3-10
		v-15.5h-3.8v-6.7h3.8v-7.9h8.2v7.9h7.2v6.7H265.8z"/>
	<path class="st14" d="M278.9,328.4c-0.9-0.9-1.4-2-1.4-3.4s0.5-2.5,1.4-3.4c0.9-0.9,2.1-1.4,3.6-1.4c1.4,0,2.6,0.5,3.6,1.4
		c0.9,0.9,1.4,2,1.4,3.4s-0.5,2.5-1.4,3.4c-0.9,0.9-2.1,1.4-3.6,1.4C281,329.8,279.8,329.3,278.9,328.4z M286.4,333.6v32.1h-8.1
		v-32.1H286.4z"/>
	<path class="st14" d="M299.8,364.2c-2.5-1.4-4.4-3.3-5.8-5.8c-1.4-2.5-2.1-5.4-2.1-8.7c0-3.3,0.7-6.2,2.2-8.7s3.4-4.5,5.9-5.8
		c2.5-1.4,5.3-2.1,8.4-2.1c3.1,0,5.9,0.7,8.4,2.1c2.5,1.4,4.5,3.3,5.9,5.8c1.4,2.5,2.2,5.4,2.2,8.7c0,3.3-0.7,6.2-2.2,8.7
		c-1.5,2.5-3.5,4.5-6,5.8c-2.5,1.4-5.4,2.1-8.5,2.1C305,366.2,302.3,365.5,299.8,364.2z M312.3,358.1c1.3-0.7,2.3-1.8,3.1-3.2
		c0.8-1.4,1.2-3.2,1.2-5.2c0-3.1-0.8-5.4-2.4-7c-1.6-1.6-3.6-2.5-5.9-2.5c-2.3,0-4.3,0.8-5.8,2.5c-1.6,1.6-2.3,4-2.3,7
		c0,3.1,0.8,5.4,2.3,7c1.5,1.6,3.5,2.5,5.8,2.5C309.6,359.2,311,358.8,312.3,358.1z"/>
	<path class="st14" d="M357.4,336.7c2.4,2.4,3.5,5.8,3.5,10.1v18.8h-8.1V348c0-2.6-0.6-4.5-1.9-5.9c-1.3-1.4-3-2.1-5.2-2.1
		c-2.2,0-4,0.7-5.3,2.1c-1.3,1.4-1.9,3.3-1.9,5.9v17.7h-8.1v-32.1h8.1v4c1.1-1.4,2.5-2.5,4.1-3.3c1.7-0.8,3.5-1.2,5.5-1.2
		C351.9,333.1,355,334.3,357.4,336.7z"/>
	<path class="st14" d="M412.4,365.7l-4.4-4.3c-3.8,3.4-8.3,5-13.7,5c-3,0-5.6-0.5-7.9-1.5c-2.3-1-4-2.5-5.2-4.4
		c-1.2-1.9-1.9-4-1.9-6.5c0-2.7,0.8-5.1,2.3-7.2c1.5-2.1,3.7-3.8,6.7-5.2c-1-1.3-1.8-2.5-2.3-3.7c-0.5-1.2-0.7-2.4-0.7-3.8
		c0-1.9,0.5-3.5,1.5-5c1-1.5,2.3-2.7,4.1-3.5c1.8-0.8,3.9-1.3,6.3-1.3c2.4,0,4.5,0.5,6.3,1.4s3,2.2,3.9,3.7c0.9,1.5,1.2,3.3,1.1,5.2
		h-7.9c0-1.3-0.3-2.3-0.9-2.9c-0.7-0.7-1.5-1-2.7-1c-1.1,0-2,0.3-2.7,1c-0.7,0.6-1.1,1.5-1.1,2.5c0,1,0.3,1.9,0.9,2.9
		c0.6,0.9,1.5,2.1,2.8,3.5l10.2,10.1c0.1-0.1,0.1-0.2,0.2-0.2c0-0.1,0.1-0.2,0.1-0.2l3.3-5.5h8.5l-4.1,7.1c-0.8,1.5-1.6,2.9-2.5,4.3
		l9.8,9.7H412.4z M402.9,356.3l-10-9.9c-3.8,1.7-5.6,4-5.6,7.1c0,1.7,0.7,3.2,2,4.4s3.1,1.8,5.2,1.8
		C397.7,359.7,400.5,358.6,402.9,356.3z"/>
	<path class="st14" d="M439.8,334.7c1.8-3.2,4.3-5.6,7.4-7.4c3.1-1.8,6.6-2.6,10.5-2.6c4.5,0,8.5,1.2,11.9,3.5
		c3.4,2.3,5.8,5.5,7.1,9.6h-9.3c-0.9-1.9-2.2-3.4-3.9-4.3c-1.7-1-3.6-1.5-5.8-1.5c-2.4,0-4.5,0.6-6.3,1.7c-1.8,1.1-3.3,2.7-4.3,4.7
		c-1,2-1.5,4.4-1.5,7.1c0,2.7,0.5,5,1.5,7c1,2,2.5,3.6,4.3,4.7c1.8,1.1,3.9,1.7,6.3,1.7c2.2,0,4.1-0.5,5.8-1.5s3-2.4,3.9-4.4h9.3
		c-1.4,4.1-3.7,7.4-7.1,9.7c-3.4,2.3-7.4,3.5-11.9,3.5c-3.9,0-7.4-0.9-10.5-2.6c-3.1-1.8-5.6-4.2-7.4-7.3c-1.8-3.1-2.7-6.7-2.7-10.7
		S438,337.9,439.8,334.7z"/>
	<path class="st14" d="M488.9,364.2c-2.5-1.4-4.4-3.3-5.8-5.8c-1.4-2.5-2.1-5.4-2.1-8.7c0-3.3,0.7-6.2,2.2-8.7
		c1.4-2.5,3.4-4.5,5.9-5.8c2.5-1.4,5.3-2.1,8.4-2.1c3.1,0,5.9,0.7,8.4,2.1c2.5,1.4,4.5,3.3,5.9,5.8c1.4,2.5,2.2,5.4,2.2,8.7
		c0,3.3-0.7,6.2-2.2,8.7c-1.5,2.5-3.5,4.5-6,5.8c-2.5,1.4-5.4,2.1-8.5,2.1C494.2,366.2,491.4,365.5,488.9,364.2z M501.4,358.1
		c1.3-0.7,2.3-1.8,3.1-3.2s1.2-3.2,1.2-5.2c0-3.1-0.8-5.4-2.4-7c-1.6-1.6-3.6-2.5-5.9-2.5c-2.3,0-4.3,0.8-5.8,2.5
		c-1.6,1.6-2.3,4-2.3,7c0,3.1,0.8,5.4,2.3,7c1.5,1.6,3.5,2.5,5.8,2.5C498.7,359.2,500.1,358.8,501.4,358.1z"/>
	<path class="st14" d="M568.9,336.7c2.4,2.4,3.6,5.8,3.6,10.1v18.8h-8.1V348c0-2.5-0.6-4.4-1.9-5.8s-3-2-5.2-2s-4,0.7-5.2,2
		c-1.3,1.3-1.9,3.3-1.9,5.8v17.7h-8.1V348c0-2.5-0.6-4.4-1.9-5.8c-1.3-1.3-3-2-5.2-2c-2.2,0-4,0.7-5.3,2c-1.3,1.3-1.9,3.3-1.9,5.8
		v17.7h-8.1v-32.1h8.1v3.9c1-1.4,2.4-2.4,4-3.2c1.6-0.8,3.5-1.2,5.4-1.2c2.5,0,4.8,0.5,6.7,1.6c2,1.1,3.5,2.6,4.6,4.6
		c1-1.9,2.6-3.3,4.6-4.5c2-1.1,4.1-1.7,6.5-1.7C563.3,333.1,566.4,334.3,568.9,336.7z"/>
	<path class="st14" d="M629.1,336.7c2.4,2.4,3.6,5.8,3.6,10.1v18.8h-8.1V348c0-2.5-0.6-4.4-1.9-5.8s-3-2-5.2-2s-4,0.7-5.2,2
		c-1.3,1.3-1.9,3.3-1.9,5.8v17.7h-8.1V348c0-2.5-0.6-4.4-1.9-5.8c-1.3-1.3-3-2-5.2-2c-2.2,0-4,0.7-5.3,2c-1.3,1.3-1.9,3.3-1.9,5.8
		v17.7h-8.1v-32.1h8.1v3.9c1-1.4,2.4-2.4,4-3.2c1.6-0.8,3.5-1.2,5.4-1.2c2.5,0,4.8,0.5,6.7,1.6c2,1.1,3.5,2.6,4.6,4.6
		c1-1.9,2.6-3.3,4.6-4.5c2-1.1,4.1-1.7,6.5-1.7C623.5,333.1,626.7,334.3,629.1,336.7z"/>
	<path class="st14" d="M670.2,333.6v32.1H662v-4.1c-1,1.4-2.4,2.5-4.1,3.3c-1.7,0.8-3.5,1.2-5.5,1.2c-2.5,0-4.7-0.5-6.7-1.6
		c-1.9-1.1-3.5-2.6-4.6-4.7c-1.1-2.1-1.7-4.5-1.7-7.4v-18.8h8.1v17.7c0,2.6,0.6,4.5,1.9,5.9c1.3,1.4,3,2.1,5.2,2.1
		c2.2,0,4-0.7,5.3-2.1c1.3-1.4,1.9-3.3,1.9-5.9v-17.7H670.2z"/>
	<path class="st14" d="M704.7,336.7c2.4,2.4,3.5,5.8,3.5,10.1v18.8h-8.1V348c0-2.6-0.6-4.5-1.9-5.9c-1.3-1.4-3-2.1-5.2-2.1
		c-2.2,0-4,0.7-5.3,2.1c-1.3,1.4-1.9,3.3-1.9,5.9v17.7h-8.1v-32.1h8.1v4c1.1-1.4,2.5-2.5,4.1-3.3c1.7-0.8,3.5-1.2,5.5-1.2
		C699.2,333.1,702.3,334.3,704.7,336.7z"/>
	<path class="st14" d="M715.9,328.4c-0.9-0.9-1.4-2-1.4-3.4s0.5-2.5,1.4-3.4c0.9-0.9,2.1-1.4,3.6-1.4c1.4,0,2.6,0.5,3.6,1.4
		c0.9,0.9,1.4,2,1.4,3.4s-0.5,2.5-1.4,3.4c-0.9,0.9-2.1,1.4-3.6,1.4C718,329.8,716.8,329.3,715.9,328.4z M723.5,333.6v32.1h-8.1
		v-32.1H723.5z"/>
	<path class="st14" d="M730.8,340.9c1.4-2.5,3.2-4.4,5.6-5.8c2.4-1.4,5.1-2.1,8.2-2.1c4,0,7.3,1,9.9,3c2.6,2,4.4,4.8,5.2,8.4h-8.8
		c-0.5-1.4-1.2-2.5-2.3-3.3c-1.1-0.8-2.5-1.2-4.1-1.2c-2.3,0-4.2,0.8-5.5,2.5c-1.4,1.7-2,4.1-2,7.2c0,3.1,0.7,5.4,2,7.1
		c1.4,1.7,3.2,2.5,5.5,2.5c3.3,0,5.4-1.5,6.4-4.4h8.8c-0.9,3.5-2.6,6.2-5.3,8.3c-2.6,2-5.9,3.1-9.9,3.1c-3.1,0-5.8-0.7-8.2-2.1
		c-2.4-1.4-4.3-3.3-5.6-5.8c-1.4-2.5-2-5.4-2-8.7C728.8,346.3,729.5,343.4,730.8,340.9z"/>
	<path class="st14" d="M765.1,340.9c1.3-2.5,3.1-4.4,5.3-5.8c2.2-1.4,4.7-2,7.5-2c2.4,0,4.5,0.5,6.3,1.5c1.8,1,3.2,2.2,4.3,3.7v-4.6
		h8.2v32.1h-8.2V361c-1,1.5-2.5,2.8-4.3,3.7c-1.8,1-4,1.5-6.4,1.5c-2.7,0-5.2-0.7-7.4-2.1c-2.2-1.4-4-3.4-5.3-5.9
		c-1.3-2.5-1.9-5.4-1.9-8.7C763.1,346.3,763.8,343.4,765.1,340.9z M787.3,344.6c-0.8-1.4-1.8-2.5-3.1-3.2c-1.3-0.8-2.7-1.1-4.2-1.1
		s-2.9,0.4-4.2,1.1c-1.3,0.7-2.3,1.8-3.1,3.2c-0.8,1.4-1.2,3.1-1.2,5s0.4,3.6,1.2,5.1c0.8,1.5,1.8,2.6,3.1,3.3
		c1.3,0.8,2.7,1.2,4.1,1.2c1.5,0,2.9-0.4,4.2-1.1c1.3-0.8,2.4-1.8,3.1-3.2c0.8-1.4,1.2-3.1,1.2-5.1C788.4,347.7,788,346,787.3,344.6
		z"/>
	<path class="st14" d="M813.4,340.2v15.5c0,1.1,0.3,1.9,0.8,2.3c0.5,0.5,1.4,0.7,2.6,0.7h3.8v6.8h-5.1c-6.8,0-10.3-3.3-10.3-10
		v-15.5h-3.8v-6.7h3.8v-7.9h8.2v7.9h7.2v6.7H813.4z"/>
	<path class="st14" d="M826.4,328.4c-0.9-0.9-1.4-2-1.4-3.4s0.5-2.5,1.4-3.4c0.9-0.9,2.1-1.4,3.6-1.4c1.4,0,2.6,0.5,3.6,1.4
		c0.9,0.9,1.4,2,1.4,3.4s-0.5,2.5-1.4,3.4c-0.9,0.9-2.1,1.4-3.6,1.4C828.6,329.8,827.4,329.3,826.4,328.4z M834,333.6v32.1h-8.1
		v-32.1H834z"/>
	<path class="st14" d="M847.3,364.2c-2.5-1.4-4.4-3.3-5.8-5.8c-1.4-2.5-2.1-5.4-2.1-8.7c0-3.3,0.7-6.2,2.2-8.7
		c1.4-2.5,3.4-4.5,5.9-5.8c2.5-1.4,5.3-2.1,8.4-2.1c3.1,0,5.9,0.7,8.4,2.1c2.5,1.4,4.5,3.3,5.9,5.8c1.4,2.5,2.2,5.4,2.2,8.7
		c0,3.3-0.7,6.2-2.2,8.7c-1.5,2.5-3.5,4.5-6,5.8c-2.5,1.4-5.4,2.1-8.5,2.1C852.6,366.2,849.8,365.5,847.3,364.2z M859.8,358.1
		c1.3-0.7,2.3-1.8,3.1-3.2s1.2-3.2,1.2-5.2c0-3.1-0.8-5.4-2.4-7c-1.6-1.6-3.6-2.5-5.9-2.5c-2.3,0-4.3,0.8-5.8,2.5
		c-1.6,1.6-2.3,4-2.3,7c0,3.1,0.8,5.4,2.3,7c1.5,1.6,3.5,2.5,5.8,2.5C857.2,359.2,858.6,358.8,859.8,358.1z"/>
	<path class="st14" d="M904.9,336.7c2.4,2.4,3.5,5.8,3.5,10.1v18.8h-8.1V348c0-2.6-0.6-4.5-1.9-5.9c-1.3-1.4-3-2.1-5.2-2.1
		c-2.2,0-4,0.7-5.3,2.1c-1.3,1.4-1.9,3.3-1.9,5.9v17.7h-8.1v-32.1h8.1v4c1.1-1.4,2.5-2.5,4.1-3.3c1.7-0.8,3.5-1.2,5.5-1.2
		C899.5,333.1,902.6,334.3,904.9,336.7z"/>
	<path class="st14" d="M920.8,364.8c-2.1-0.9-3.7-2.2-5-3.9c-1.2-1.6-1.9-3.4-2-5.4h8.2c0.2,1.2,0.8,2.3,1.8,3.1
		c1.1,0.8,2.4,1.2,4,1.2c1.5,0,2.8-0.3,3.6-0.9c0.9-0.6,1.3-1.4,1.3-2.4c0-1-0.5-1.8-1.6-2.3c-1.1-0.5-2.8-1.1-5.1-1.7
		c-2.4-0.6-4.4-1.2-5.9-1.8c-1.5-0.6-2.8-1.6-3.9-2.8c-1.1-1.3-1.7-3-1.7-5.2c0-1.8,0.5-3.4,1.5-4.9c1-1.5,2.5-2.6,4.4-3.5
		s4.2-1.3,6.8-1.3c3.8,0,6.9,1,9.2,2.9c2.3,1.9,3.5,4.5,3.8,7.7h-7.8c-0.1-1.3-0.6-2.3-1.6-3c-0.9-0.8-2.2-1.1-3.8-1.1
		c-1.5,0-2.6,0.3-3.4,0.8c-0.8,0.5-1.2,1.3-1.2,2.3c0,1.1,0.5,1.9,1.6,2.5c1.1,0.6,2.8,1.1,5,1.7c2.3,0.6,4.2,1.2,5.7,1.8
		c1.5,0.6,2.8,1.6,3.9,2.9c1.1,1.3,1.7,3,1.7,5.1c0,1.9-0.5,3.5-1.5,5c-1,1.5-2.5,2.6-4.4,3.5s-4.1,1.2-6.7,1.2
		C925.3,366.2,922.9,365.8,920.8,364.8z"/>
</g>
<g class="st13">
	<path class="st14" d="M53,394.2v6.6H42.2v33.9h-8.1v-33.9H23.3v-6.6H53z"/>
	<path class="st14" d="M88,421.1H64.5c0.2,2.3,1,4.1,2.4,5.5c1.4,1.3,3.2,2,5.3,2c3,0,5.2-1.3,6.4-3.9h8.8c-0.9,3.1-2.7,5.6-5.3,7.6
		c-2.6,2-5.9,3-9.7,3c-3.1,0-5.9-0.7-8.3-2.1c-2.5-1.4-4.4-3.3-5.7-5.8c-1.4-2.5-2.1-5.4-2.1-8.7c0-3.3,0.7-6.2,2-8.8
		c1.4-2.5,3.2-4.4,5.7-5.8c2.4-1.4,5.2-2,8.4-2c3.1,0,5.8,0.7,8.2,2c2.4,1.3,4.3,3.2,5.6,5.6c1.3,2.4,2,5.2,2,8.3
		C88.2,419.1,88.1,420.2,88,421.1z M79.8,415.6c0-2.1-0.8-3.8-2.3-5c-1.5-1.3-3.3-1.9-5.4-1.9c-2,0-3.7,0.6-5.1,1.8
		c-1.4,1.2-2.2,2.9-2.5,5.1H79.8z"/>
	<path class="st14" d="M93.5,409.9c1.4-2.5,3.2-4.4,5.6-5.8c2.4-1.4,5.1-2.1,8.2-2.1c4,0,7.3,1,9.9,3c2.6,2,4.4,4.8,5.2,8.4h-8.8
		c-0.5-1.4-1.2-2.5-2.3-3.3c-1.1-0.8-2.5-1.2-4.1-1.2c-2.3,0-4.2,0.8-5.5,2.5c-1.4,1.7-2,4.1-2,7.2c0,3.1,0.7,5.4,2,7.1
		c1.4,1.7,3.2,2.5,5.5,2.5c3.3,0,5.4-1.5,6.4-4.4h8.8c-0.9,3.5-2.6,6.2-5.3,8.3c-2.6,2-5.9,3.1-9.9,3.1c-3.1,0-5.8-0.7-8.2-2.1
		c-2.4-1.4-4.3-3.3-5.6-5.8c-1.4-2.5-2-5.4-2-8.7C91.4,415.3,92.1,412.4,93.5,409.9z"/>
	<path class="st14" d="M152.5,403.7c1.9,1.1,3.4,2.6,4.4,4.7s1.6,4.6,1.6,7.5v18.8h-8.1V417c0-2.6-0.6-4.5-1.9-5.9
		c-1.3-1.4-3-2.1-5.2-2.1c-2.2,0-4,0.7-5.3,2.1c-1.3,1.4-1.9,3.3-1.9,5.9v17.7h-8.1v-42.9h8.1v14.8c1-1.4,2.4-2.5,4.2-3.3
		c1.7-0.8,3.7-1.2,5.8-1.2C148.4,402.1,150.6,402.6,152.5,403.7z"/>
	<path class="st14" d="M192.7,405.7c2.4,2.4,3.5,5.8,3.5,10.1v18.8h-8.1V417c0-2.6-0.6-4.5-1.9-5.9c-1.3-1.4-3-2.1-5.2-2.1
		c-2.2,0-4,0.7-5.3,2.1c-1.3,1.4-1.9,3.3-1.9,5.9v17.7h-8.1v-32.1h8.1v4c1.1-1.4,2.5-2.5,4.1-3.3c1.7-0.8,3.5-1.2,5.5-1.2
		C187.3,402.1,190.4,403.3,192.7,405.7z"/>
	<path class="st14" d="M209.3,433.2c-2.5-1.4-4.4-3.3-5.8-5.8c-1.4-2.5-2.1-5.4-2.1-8.7c0-3.3,0.7-6.2,2.2-8.7s3.4-4.5,5.9-5.8
		c2.5-1.4,5.3-2.1,8.4-2.1c3.1,0,5.9,0.7,8.4,2.1c2.5,1.4,4.5,3.3,5.9,5.8c1.5,2.5,2.2,5.4,2.2,8.7c0,3.3-0.7,6.2-2.2,8.7
		c-1.5,2.5-3.5,4.5-6,5.8c-2.5,1.4-5.4,2.1-8.5,2.1C214.6,435.2,211.8,434.5,209.3,433.2z M221.8,427.1c1.3-0.7,2.3-1.8,3.1-3.2
		c0.8-1.4,1.2-3.2,1.2-5.2c0-3.1-0.8-5.4-2.4-7c-1.6-1.6-3.6-2.5-5.9-2.5c-2.3,0-4.3,0.8-5.8,2.5c-1.6,1.6-2.3,4-2.3,7
		c0,3.1,0.8,5.4,2.3,7c1.5,1.6,3.5,2.5,5.8,2.5C219.1,428.2,220.5,427.8,221.8,427.1z"/>
	<path class="st14" d="M247.9,391.8v42.9h-8.1v-42.9H247.9z"/>
	<path class="st14" d="M261.3,433.2c-2.5-1.4-4.4-3.3-5.8-5.8c-1.4-2.5-2.1-5.4-2.1-8.7c0-3.3,0.7-6.2,2.2-8.7s3.4-4.5,5.9-5.8
		c2.5-1.4,5.3-2.1,8.4-2.1c3.1,0,5.9,0.7,8.4,2.1c2.5,1.4,4.5,3.3,5.9,5.8c1.5,2.5,2.2,5.4,2.2,8.7c0,3.3-0.7,6.2-2.2,8.7
		c-1.5,2.5-3.5,4.5-6,5.8c-2.5,1.4-5.4,2.1-8.5,2.1C266.5,435.2,263.7,434.5,261.3,433.2z M273.8,427.1c1.3-0.7,2.3-1.8,3.1-3.2
		c0.8-1.4,1.2-3.2,1.2-5.2c0-3.1-0.8-5.4-2.4-7c-1.6-1.6-3.6-2.5-5.9-2.5c-2.3,0-4.3,0.8-5.8,2.5c-1.6,1.6-2.3,4-2.3,7
		c0,3.1,0.8,5.4,2.3,7c1.5,1.6,3.5,2.5,5.8,2.5C271.1,428.2,272.5,427.8,273.8,427.1z"/>
	<path class="st14" d="M310.7,403.5c1.8,0.9,3.2,2.2,4.3,3.7v-4.6h8.2v32.4c0,3-0.6,5.6-1.8,8c-1.2,2.3-3,4.2-5.4,5.6
		c-2.4,1.4-5.3,2.1-8.7,2.1c-4.6,0-8.3-1.1-11.2-3.2c-2.9-2.1-4.6-5-5-8.7h8.1c0.4,1.5,1.3,2.6,2.8,3.5c1.4,0.9,3.1,1.3,5.1,1.3
		c2.4,0,4.3-0.7,5.7-2.1c1.5-1.4,2.2-3.5,2.2-6.4v-5c-1,1.5-2.5,2.8-4.3,3.8c-1.8,1-3.9,1.5-6.3,1.5c-2.7,0-5.2-0.7-7.4-2.1
		c-2.2-1.4-4-3.4-5.3-5.9c-1.3-2.5-1.9-5.4-1.9-8.7c0-3.2,0.6-6.1,1.9-8.6c1.3-2.5,3.1-4.4,5.3-5.8c2.2-1.4,4.7-2,7.5-2
		C306.8,402.1,308.9,402.5,310.7,403.5z M313.8,413.6c-0.8-1.4-1.8-2.5-3.1-3.2c-1.3-0.8-2.7-1.1-4.2-1.1c-1.5,0-2.9,0.4-4.2,1.1
		c-1.3,0.7-2.3,1.8-3.1,3.2c-0.8,1.4-1.2,3.1-1.2,5s0.4,3.6,1.2,5.1c0.8,1.5,1.8,2.6,3.1,3.3c1.3,0.8,2.7,1.2,4.1,1.2
		c1.5,0,2.9-0.4,4.2-1.1c1.3-0.8,2.4-1.8,3.1-3.2c0.8-1.4,1.2-3.1,1.2-5.1C315,416.7,314.6,415,313.8,413.6z"/>
	<path class="st14" d="M361.3,402.6l-19.9,47.3h-8.6l7-16l-12.9-31.3h9.1l8.3,22.4l8.4-22.4H361.3z"/>
	<path class="st14" d="M403.2,394.2v6.6h-16.9v10.4h12.9v6.4h-12.9v17.1h-8.1v-40.5H403.2z"/>
	<path class="st14" d="M414.3,433.2c-2.5-1.4-4.4-3.3-5.8-5.8c-1.4-2.5-2.1-5.4-2.1-8.7c0-3.3,0.7-6.2,2.2-8.7
		c1.4-2.5,3.4-4.5,5.9-5.8c2.5-1.4,5.3-2.1,8.4-2.1c3.1,0,5.9,0.7,8.4,2.1c2.5,1.4,4.5,3.3,5.9,5.8c1.4,2.5,2.2,5.4,2.2,8.7
		c0,3.3-0.7,6.2-2.2,8.7c-1.5,2.5-3.5,4.5-6,5.8c-2.5,1.4-5.4,2.1-8.5,2.1C419.6,435.2,416.8,434.5,414.3,433.2z M426.8,427.1
		c1.3-0.7,2.3-1.8,3.1-3.2s1.2-3.2,1.2-5.2c0-3.1-0.8-5.4-2.4-7c-1.6-1.6-3.6-2.5-5.9-2.5c-2.3,0-4.3,0.8-5.8,2.5
		c-1.6,1.6-2.3,4-2.3,7c0,3.1,0.8,5.4,2.3,7c1.5,1.6,3.5,2.5,5.8,2.5C424.1,428.2,425.5,427.8,426.8,427.1z"/>
	<path class="st14" d="M457,403.6c1.7-1,3.6-1.4,5.8-1.4v8.5h-2.1c-2.6,0-4.5,0.6-5.8,1.8c-1.3,1.2-1.9,3.3-1.9,6.3v16h-8.1v-32.1
		h8.1v5C454,405.9,455.4,404.5,457,403.6z"/>
	<path class="st14" d="M498,402.6v32.1h-8.2v-4.1c-1,1.4-2.4,2.5-4.1,3.3c-1.7,0.8-3.5,1.2-5.5,1.2c-2.5,0-4.7-0.5-6.7-1.6
		c-1.9-1.1-3.5-2.6-4.6-4.7c-1.1-2.1-1.7-4.5-1.7-7.4v-18.8h8.1v17.7c0,2.6,0.6,4.5,1.9,5.9c1.3,1.4,3,2.1,5.2,2.1
		c2.2,0,4-0.7,5.3-2.1c1.3-1.4,1.9-3.3,1.9-5.9v-17.7H498z"/>
	<path class="st14" d="M554.9,405.7c2.4,2.4,3.6,5.8,3.6,10.1v18.8h-8.1V417c0-2.5-0.6-4.4-1.9-5.8s-3-2-5.2-2s-4,0.7-5.2,2
		c-1.3,1.3-1.9,3.3-1.9,5.8v17.7h-8.1V417c0-2.5-0.6-4.4-1.9-5.8c-1.3-1.3-3-2-5.2-2c-2.2,0-4,0.7-5.3,2c-1.3,1.3-1.9,3.3-1.9,5.8
		v17.7h-8.1v-32.1h8.1v3.9c1-1.4,2.4-2.4,4-3.2c1.6-0.8,3.5-1.2,5.4-1.2c2.5,0,4.8,0.5,6.7,1.6c2,1.1,3.5,2.6,4.6,4.6
		c1-1.9,2.6-3.3,4.6-4.5c2-1.1,4.1-1.7,6.5-1.7C549.3,402.1,552.5,403.3,554.9,405.7z"/>
</g>
<text transform="matrix(1 0 0 1 332.24 167.42)" class="st8 st9 st10">C</text>
</svg>
