<?xml version="1.0" encoding="utf-8"?>
<!-- Generator: Adobe Illustrator 27.0.1, SVG Export Plug-In . SVG Version: 6.00 Build 0)  -->
<svg version="1.1" id="Layer_1" xmlns="http://www.w3.org/2000/svg" xmlns:xlink="http://www.w3.org/1999/xlink" x="0px" y="0px"
	 viewBox="0 0 1034.5 450.7" style="enable-background:new 0 0 1034.5 450.7;" xml:space="preserve">
<style type="text/css">
	.st0{fill:#7331CF;}
	.st1{fill:#8338EC;}
	.st2{fill:#DF0060;}
	.st3{fill:#FF006D;}
	.st4{fill:#DC4B06;}
	.st5{fill:#FB5607;}
	.st6{fill:#DFA70B;}
	.st7{fill:#FFBF0C;}
	.st8{fill:#FFFFFF;}
	.st9{fill:#2F3B55;}
</style>
<path class="st0" d="M727.5,81.2l48.8-48.8c43.2-43.2,113.3-43.2,156.5,0l0,0c43.2,43.2,43.2,113.3,0,156.5L884,237.7
	c-43.2,43.2-113.3,43.2-156.5,0l0,0C684.3,194.4,684.3,124.4,727.5,81.2z"/>
<ellipse class="st1" cx="854.6" cy="110.8" rx="110.8" ry="110.5"/>
<path class="st2" d="M495.9,81.2l48.8-48.8c43.2-43.2,113.3-43.2,156.5,0l0,0c43.2,43.2,43.2,113.3,0,156.5l-48.8,48.8
	c-43.2,43.2-113.3,43.2-156.5,0l0,0C452.7,194.5,452.7,124.4,495.9,81.2L495.9,81.2z"/>
<ellipse class="st3" cx="622.7" cy="110.8" rx="110.8" ry="110.5"/>
<path class="st4" d="M264.2,81.6L313,32.8c43.2-43.2,113.3-43.2,156.5,0l0,0c43.2,43.2,43.2,113.3,0,156.5l-48.8,48.8
	c-43.2,43.2-113.3,43.2-156.5,0l0,0C221,194.9,221,124.8,264.2,81.6z"/>
<ellipse class="st5" cx="391.7" cy="110.8" rx="110.8" ry="110.5"/>
<path class="st6" d="M32.4,81.4l48.8-48.7c43.2-43.2,113.3-43.2,156.5,0l0,0c43.2,43.2,43.2,113.3,0,156.5L188.9,238
	c-43.2,43.2-113.3,43.2-156.5,0l0,0C-10.8,194.7-10.8,124.6,32.4,81.4z"/>
<ellipse class="st7" cx="160" cy="110.5" rx="110.8" ry="110.5"/>
<g>
	<path class="st8" d="M145.5,170V52.9h29V170H145.5L145.5,170z"/>
</g>
<g>
	<path class="st8" d="M667.4,81.4h-30.3v89.1h-29V81.4h-30.4v-28h89.7V81.4z"/>
</g>
<g>
	<path class="st8" d="M820,169V51.8h72.3v28h-43.4v19.5h35.3v26.1h-35.3V169H820z"/>
</g>
<g>
	<path class="st9" d="M33.8,325.2v40.5h-8.1v-40.5H33.8z"/>
	<path class="st9" d="M68.3,336.7c2.4,2.4,3.5,5.8,3.5,10.1v18.8h-8.1V348c0-2.6-0.6-4.5-1.9-5.9c-1.3-1.4-3-2.1-5.2-2.1
		s-4,0.7-5.3,2.1s-1.9,3.3-1.9,5.9v17.7h-8.2v-32.1h8.1v4c1.1-1.4,2.5-2.5,4.1-3.3c1.7-0.8,3.5-1.2,5.5-1.2
		C62.8,333.1,65.9,334.3,68.3,336.7z"/>
	<path class="st9" d="M93.7,340.2h-5.6v25.5h-8.2v-25.5h-3.7v-6.7h3.7V332c0-3.9,1.1-6.8,3.4-8.7c2.2-1.9,5.6-2.7,10.2-2.6v6.8
		c-2,0-3.3,0.3-4.1,1c-0.8,0.7-1.2,2-1.2,3.8v1.3h5.6v6.6L93.7,340.2L93.7,340.2z"/>
	<path class="st9" d="M104.3,364.2c-2.5-1.4-4.4-3.3-5.8-5.8s-2.1-5.4-2.1-8.7s0.7-6.2,2.2-8.7s3.4-4.5,5.9-5.8
		c2.5-1.4,5.3-2.1,8.4-2.1s5.9,0.7,8.4,2.1s4.5,3.3,5.9,5.8c1.5,2.5,2.2,5.4,2.2,8.7s-0.7,6.2-2.2,8.7s-3.5,4.5-6,5.8
		c-2.5,1.4-5.4,2.1-8.5,2.1C109.5,366.2,106.8,365.5,104.3,364.2z M116.8,358.1c1.3-0.7,2.3-1.8,3.1-3.2c0.8-1.4,1.2-3.2,1.2-5.2
		c0-3.1-0.8-5.4-2.4-7s-3.6-2.5-5.9-2.5s-4.3,0.8-5.8,2.5c-1.6,1.6-2.3,4-2.3,7s0.8,5.4,2.3,7s3.5,2.5,5.8,2.5
		C114.1,359.2,115.5,358.8,116.8,358.1L116.8,358.1z"/>
	<path class="st9" d="M147,334.6c1.7-1,3.6-1.4,5.8-1.4v8.5h-2.1c-2.6,0-4.5,0.6-5.8,1.8c-1.3,1.2-1.9,3.3-1.9,6.3v16h-8.1v-32.1
		h8.1v5C144,336.9,145.3,335.5,147,334.6L147,334.6z"/>
	<path class="st9" d="M207.1,336.7c2.4,2.4,3.6,5.8,3.6,10.1v18.8h-8.1V348c0-2.5-0.6-4.4-1.9-5.8s-3-2-5.2-2s-4,0.7-5.2,2
		c-1.3,1.3-1.9,3.3-1.9,5.8v17.7h-8.2V348c0-2.5-0.6-4.4-1.9-5.8c-1.3-1.3-3-2-5.2-2s-4,0.7-5.3,2s-1.9,3.3-1.9,5.8v17.7h-8.1v-32.1
		h8.1v3.9c1-1.4,2.4-2.4,4-3.2c1.6-0.8,3.5-1.2,5.4-1.2c2.5,0,4.8,0.5,6.7,1.6c2,1.1,3.5,2.6,4.6,4.6c1-1.9,2.6-3.3,4.6-4.5
		c2-1.1,4.1-1.7,6.5-1.7C201.5,333.1,204.7,334.3,207.1,336.7L207.1,336.7z"/>
	<path class="st9" d="M217.7,340.9c1.3-2.5,3.1-4.4,5.3-5.8s4.7-2,7.5-2c2.4,0,4.5,0.5,6.3,1.5s3.2,2.2,4.3,3.7v-4.6h8.2v32.1h-8.2
		V361c-1,1.5-2.5,2.8-4.3,3.7c-1.8,1-4,1.5-6.4,1.5c-2.7,0-5.2-0.7-7.4-2.1s-4-3.4-5.3-5.9s-1.9-5.4-1.9-8.7
		C215.8,346.3,216.4,343.4,217.7,340.9L217.7,340.9z M239.9,344.6c-0.8-1.4-1.8-2.5-3.1-3.2c-1.3-0.8-2.7-1.1-4.2-1.1
		s-2.9,0.4-4.2,1.1s-2.3,1.8-3.1,3.2c-0.8,1.4-1.2,3.1-1.2,5s0.4,3.6,1.2,5.1s1.8,2.6,3.1,3.3c1.3,0.8,2.7,1.2,4.1,1.2
		c1.5,0,2.9-0.4,4.2-1.1c1.3-0.8,2.4-1.8,3.1-3.2c0.8-1.4,1.2-3.1,1.2-5.1C241.1,347.7,240.7,346,239.9,344.6L239.9,344.6z"/>
	<path class="st9" d="M266,340.2v15.5c0,1.1,0.3,1.9,0.8,2.3c0.5,0.5,1.4,0.7,2.6,0.7h3.8v6.8h-5.1c-6.8,0-10.3-3.3-10.3-10V340H254
		v-6.7h3.8v-7.9h8.2v7.9h7.2v6.7H266V340.2z"/>
	<path class="st9" d="M279.1,328.4c-0.9-0.9-1.4-2-1.4-3.4s0.5-2.5,1.4-3.4s2.1-1.4,3.6-1.4c1.4,0,2.6,0.5,3.6,1.4
		c0.9,0.9,1.4,2,1.4,3.4s-0.5,2.5-1.4,3.4s-2.1,1.4-3.6,1.4S280,329.3,279.1,328.4z M286.6,333.6v32.1h-8.1v-32.1H286.6z"/>
	<path class="st9" d="M300,364.2c-2.5-1.4-4.4-3.3-5.8-5.8s-2.1-5.4-2.1-8.7s0.7-6.2,2.2-8.7s3.4-4.5,5.9-5.8
		c2.5-1.4,5.3-2.1,8.4-2.1s5.9,0.7,8.4,2.1s4.5,3.3,5.9,5.8s2.2,5.4,2.2,8.7s-0.7,6.2-2.2,8.7s-3.5,4.5-6,5.8
		c-2.5,1.4-5.4,2.1-8.5,2.1C305.2,366.2,302.5,365.5,300,364.2z M312.5,358.1c1.3-0.7,2.3-1.8,3.1-3.2c0.8-1.4,1.2-3.2,1.2-5.2
		c0-3.1-0.8-5.4-2.4-7s-3.6-2.5-5.9-2.5s-4.3,0.8-5.8,2.5c-1.6,1.6-2.3,4-2.3,7s0.8,5.4,2.3,7s3.5,2.5,5.8,2.5
		C309.8,359.2,311.2,358.8,312.5,358.1L312.5,358.1z"/>
	<path class="st9" d="M357.6,336.7c2.4,2.4,3.5,5.8,3.5,10.1v18.8H353V348c0-2.6-0.6-4.5-1.9-5.9s-3-2.1-5.2-2.1s-4,0.7-5.3,2.1
		s-1.9,3.3-1.9,5.9v17.7h-8.1v-32.1h8.1v4c1.1-1.4,2.5-2.5,4.1-3.3c1.7-0.8,3.5-1.2,5.5-1.2C352.1,333.1,355.2,334.3,357.6,336.7z"
		/>
	<path class="st9" d="M412.6,365.7l-4.4-4.3c-3.8,3.4-8.3,5-13.7,5c-3,0-5.6-0.5-7.9-1.5s-4-2.5-5.2-4.4s-1.9-4-1.9-6.5
		c0-2.7,0.8-5.1,2.3-7.2s3.7-3.8,6.7-5.2c-1-1.3-1.8-2.5-2.3-3.7s-0.7-2.4-0.7-3.8c0-1.9,0.5-3.5,1.5-5s2.3-2.7,4.1-3.5
		c1.8-0.8,3.9-1.3,6.3-1.3s4.5,0.5,6.3,1.4s3,2.2,3.9,3.7s1.2,3.3,1.1,5.2h-7.9c0-1.3-0.3-2.3-0.9-2.9c-0.7-0.7-1.5-1-2.7-1
		c-1.1,0-2,0.3-2.7,1c-0.7,0.6-1.1,1.5-1.1,2.5s0.3,1.9,0.9,2.9c0.6,0.9,1.5,2.1,2.8,3.5l10.2,10.1c0.1-0.1,0.1-0.2,0.2-0.2
		c0-0.1,0.1-0.2,0.1-0.2l3.3-5.5h8.5l-4.1,7.1c-0.8,1.5-1.6,2.9-2.5,4.3l9.8,9.7h-10L412.6,365.7L412.6,365.7z M403.1,356.3l-10-9.9
		c-3.8,1.7-5.6,4-5.6,7.1c0,1.7,0.7,3.2,2,4.4s3.1,1.8,5.2,1.8C397.9,359.7,400.7,358.6,403.1,356.3z"/>
	<path class="st9" d="M440,334.7c1.8-3.2,4.3-5.6,7.4-7.4s6.6-2.6,10.5-2.6c4.5,0,8.5,1.2,11.9,3.5s5.8,5.5,7.1,9.6h-9.3
		c-0.9-1.9-2.2-3.4-3.9-4.3c-1.7-1-3.6-1.5-5.8-1.5c-2.4,0-4.5,0.6-6.3,1.7s-3.3,2.7-4.3,4.7s-1.5,4.4-1.5,7.1s0.5,5,1.5,7
		s2.5,3.6,4.3,4.7s3.9,1.7,6.3,1.7c2.2,0,4.1-0.5,5.8-1.5s3-2.4,3.9-4.4h9.3c-1.4,4.1-3.7,7.4-7.1,9.7c-3.4,2.3-7.4,3.5-11.9,3.5
		c-3.9,0-7.4-0.9-10.5-2.6c-3.1-1.8-5.6-4.2-7.4-7.3c-1.8-3.1-2.7-6.7-2.7-10.7S438.2,337.9,440,334.7L440,334.7z"/>
	<path class="st9" d="M489.1,364.2c-2.5-1.4-4.4-3.3-5.8-5.8s-2.1-5.4-2.1-8.7s0.7-6.2,2.2-8.7c1.4-2.5,3.4-4.5,5.9-5.8
		c2.5-1.4,5.3-2.1,8.4-2.1s5.9,0.7,8.4,2.1s4.5,3.3,5.9,5.8c1.4,2.5,2.2,5.4,2.2,8.7s-0.7,6.2-2.2,8.7s-3.5,4.5-6,5.8
		c-2.5,1.4-5.4,2.1-8.5,2.1C494.4,366.2,491.6,365.5,489.1,364.2z M501.6,358.1c1.3-0.7,2.3-1.8,3.1-3.2s1.2-3.2,1.2-5.2
		c0-3.1-0.8-5.4-2.4-7s-3.6-2.5-5.9-2.5s-4.3,0.8-5.8,2.5c-1.6,1.6-2.3,4-2.3,7s0.8,5.4,2.3,7s3.5,2.5,5.8,2.5
		C498.9,359.2,500.3,358.8,501.6,358.1L501.6,358.1z"/>
	<path class="st9" d="M569.1,336.7c2.4,2.4,3.6,5.8,3.6,10.1v18.8h-8.1V348c0-2.5-0.6-4.4-1.9-5.8s-3-2-5.2-2s-4,0.7-5.2,2
		c-1.3,1.3-1.9,3.3-1.9,5.8v17.7h-8.1V348c0-2.5-0.6-4.4-1.9-5.8c-1.3-1.3-3-2-5.2-2s-4,0.7-5.3,2s-1.9,3.3-1.9,5.8v17.7h-8.1v-32.1
		h8.1v3.9c1-1.4,2.4-2.4,4-3.2c1.6-0.8,3.5-1.2,5.4-1.2c2.5,0,4.8,0.5,6.7,1.6c2,1.1,3.5,2.6,4.6,4.6c1-1.9,2.6-3.3,4.6-4.5
		c2-1.1,4.1-1.7,6.5-1.7C563.5,333.1,566.6,334.3,569.1,336.7L569.1,336.7z"/>
	<path class="st9" d="M629.3,336.7c2.4,2.4,3.6,5.8,3.6,10.1v18.8h-8.1V348c0-2.5-0.6-4.4-1.9-5.8s-3-2-5.2-2s-4,0.7-5.2,2
		c-1.3,1.3-1.9,3.3-1.9,5.8v17.7h-8.1V348c0-2.5-0.6-4.4-1.9-5.8c-1.3-1.3-3-2-5.2-2s-4,0.7-5.3,2s-1.9,3.3-1.9,5.8v17.7h-8.1v-32.1
		h8.1v3.9c1-1.4,2.4-2.4,4-3.2c1.6-0.8,3.5-1.2,5.4-1.2c2.5,0,4.8,0.5,6.7,1.6c2,1.1,3.5,2.6,4.6,4.6c1-1.9,2.6-3.3,4.6-4.5
		c2-1.1,4.1-1.7,6.5-1.7C623.7,333.1,626.9,334.3,629.3,336.7L629.3,336.7z"/>
	<path class="st9" d="M670.4,333.6v32.1h-8.2v-4.1c-1,1.4-2.4,2.5-4.1,3.3c-1.7,0.8-3.5,1.2-5.5,1.2c-2.5,0-4.7-0.5-6.7-1.6
		c-1.9-1.1-3.5-2.6-4.6-4.7s-1.7-4.5-1.7-7.4v-18.8h8.1v17.7c0,2.6,0.6,4.5,1.9,5.9c1.3,1.4,3,2.1,5.2,2.1s4-0.7,5.3-2.1
		s1.9-3.3,1.9-5.9v-17.7H670.4L670.4,333.6z"/>
	<path class="st9" d="M704.9,336.7c2.4,2.4,3.5,5.8,3.5,10.1v18.8h-8.1V348c0-2.6-0.6-4.5-1.9-5.9c-1.3-1.4-3-2.1-5.2-2.1
		s-4,0.7-5.3,2.1s-1.9,3.3-1.9,5.9v17.7h-8.1v-32.1h8.1v4c1.1-1.4,2.5-2.5,4.1-3.3c1.7-0.8,3.5-1.2,5.5-1.2
		C699.4,333.1,702.5,334.3,704.9,336.7L704.9,336.7z"/>
	<path class="st9" d="M716.1,328.4c-0.9-0.9-1.4-2-1.4-3.4s0.5-2.5,1.4-3.4s2.1-1.4,3.6-1.4c1.4,0,2.6,0.5,3.6,1.4
		c0.9,0.9,1.4,2,1.4,3.4s-0.5,2.5-1.4,3.4s-2.1,1.4-3.6,1.4S717,329.3,716.1,328.4z M723.7,333.6v32.1h-8.1v-32.1H723.7z"/>
	<path class="st9" d="M731,340.9c1.4-2.5,3.2-4.4,5.6-5.8c2.4-1.4,5.1-2.1,8.2-2.1c4,0,7.3,1,9.9,3c2.6,2,4.4,4.8,5.2,8.4h-8.8
		c-0.5-1.4-1.2-2.5-2.3-3.3s-2.5-1.2-4.1-1.2c-2.3,0-4.2,0.8-5.5,2.5c-1.4,1.7-2,4.1-2,7.2s0.7,5.4,2,7.1c1.4,1.7,3.2,2.5,5.5,2.5
		c3.3,0,5.4-1.5,6.4-4.4h8.8c-0.9,3.5-2.6,6.2-5.3,8.3c-2.6,2-5.9,3.1-9.9,3.1c-3.1,0-5.8-0.7-8.2-2.1s-4.3-3.3-5.6-5.8
		c-1.4-2.5-2-5.4-2-8.7C729,346.3,729.7,343.4,731,340.9L731,340.9z"/>
	<path class="st9" d="M765.3,340.9c1.3-2.5,3.1-4.4,5.3-5.8s4.7-2,7.5-2c2.4,0,4.5,0.5,6.3,1.5s3.2,2.2,4.3,3.7v-4.6h8.2v32.1h-8.2
		V361c-1,1.5-2.5,2.8-4.3,3.7c-1.8,1-4,1.5-6.4,1.5c-2.7,0-5.2-0.7-7.4-2.1s-4-3.4-5.3-5.9s-1.9-5.4-1.9-8.7
		C763.3,346.3,764,343.4,765.3,340.9L765.3,340.9z M787.5,344.6c-0.8-1.4-1.8-2.5-3.1-3.2c-1.3-0.8-2.7-1.1-4.2-1.1
		s-2.9,0.4-4.2,1.1s-2.3,1.8-3.1,3.2c-0.8,1.4-1.2,3.1-1.2,5s0.4,3.6,1.2,5.1s1.8,2.6,3.1,3.3c1.3,0.8,2.7,1.2,4.1,1.2
		c1.5,0,2.9-0.4,4.2-1.1c1.3-0.8,2.4-1.8,3.1-3.2c0.8-1.4,1.2-3.1,1.2-5.1C788.6,347.7,788.2,346,787.5,344.6L787.5,344.6z"/>
	<path class="st9" d="M813.6,340.2v15.5c0,1.1,0.3,1.9,0.8,2.3c0.5,0.5,1.4,0.7,2.6,0.7h3.8v6.8h-5.1c-6.8,0-10.3-3.3-10.3-10V340
		h-3.8v-6.7h3.8v-7.9h8.2v7.9h7.2v6.7h-7.2V340.2z"/>
	<path class="st9" d="M826.6,328.4c-0.9-0.9-1.4-2-1.4-3.4s0.5-2.5,1.4-3.4s2.1-1.4,3.6-1.4c1.4,0,2.6,0.5,3.6,1.4
		c0.9,0.9,1.4,2,1.4,3.4s-0.5,2.5-1.4,3.4s-2.1,1.4-3.6,1.4C828.8,329.8,827.6,329.3,826.6,328.4z M834.2,333.6v32.1h-8.1v-32.1
		H834.2z"/>
	<path class="st9" d="M847.5,364.2c-2.5-1.4-4.4-3.3-5.8-5.8c-1.4-2.5-2.1-5.4-2.1-8.7s0.7-6.2,2.2-8.7c1.4-2.5,3.4-4.5,5.9-5.8
		c2.5-1.4,5.3-2.1,8.4-2.1s5.9,0.7,8.4,2.1s4.5,3.3,5.9,5.8s2.2,5.4,2.2,8.7s-0.7,6.2-2.2,8.7s-3.5,4.5-6,5.8
		c-2.5,1.4-5.4,2.1-8.5,2.1C852.8,366.2,850,365.5,847.5,364.2L847.5,364.2z M860,358.1c1.3-0.7,2.3-1.8,3.1-3.2s1.2-3.2,1.2-5.2
		c0-3.1-0.8-5.4-2.4-7c-1.6-1.6-3.6-2.5-5.9-2.5s-4.3,0.8-5.8,2.5c-1.6,1.6-2.3,4-2.3,7s0.8,5.4,2.3,7s3.5,2.5,5.8,2.5
		C857.4,359.2,858.8,358.8,860,358.1L860,358.1z"/>
	<path class="st9" d="M905.1,336.7c2.4,2.4,3.5,5.8,3.5,10.1v18.8h-8.1V348c0-2.6-0.6-4.5-1.9-5.9c-1.3-1.4-3-2.1-5.2-2.1
		s-4,0.7-5.3,2.1s-1.9,3.3-1.9,5.9v17.7h-8.1v-32.1h8.1v4c1.1-1.4,2.5-2.5,4.1-3.3c1.7-0.8,3.5-1.2,5.5-1.2
		C899.7,333.1,902.8,334.3,905.1,336.7L905.1,336.7z"/>
	<path class="st9" d="M921,364.8c-2.1-0.9-3.7-2.2-5-3.9c-1.2-1.6-1.9-3.4-2-5.4h8.2c0.2,1.2,0.8,2.3,1.8,3.1c1.1,0.8,2.4,1.2,4,1.2
		c1.5,0,2.8-0.3,3.6-0.9c0.9-0.6,1.3-1.4,1.3-2.4s-0.5-1.8-1.6-2.3s-2.8-1.1-5.1-1.7c-2.4-0.6-4.4-1.2-5.9-1.8
		c-1.5-0.6-2.8-1.6-3.9-2.8c-1.1-1.3-1.7-3-1.7-5.2c0-1.8,0.5-3.4,1.5-4.9s2.5-2.6,4.4-3.5s4.2-1.3,6.8-1.3c3.8,0,6.9,1,9.2,2.9
		s3.5,4.5,3.8,7.7h-7.8c-0.1-1.3-0.6-2.3-1.6-3c-0.9-0.8-2.2-1.1-3.8-1.1c-1.5,0-2.6,0.3-3.4,0.8c-0.8,0.5-1.2,1.3-1.2,2.3
		c0,1.1,0.5,1.9,1.6,2.5s2.8,1.1,5,1.7c2.3,0.6,4.2,1.2,5.7,1.8c1.5,0.6,2.8,1.6,3.9,2.9c1.1,1.3,1.7,3,1.7,5.1c0,1.9-0.5,3.5-1.5,5
		s-2.5,2.6-4.4,3.5s-4.1,1.2-6.7,1.2C925.5,366.2,923.1,365.8,921,364.8L921,364.8z"/>
</g>
<g>
	<path class="st9" d="M53.2,394.2v6.6H42.4v33.9h-8.1v-33.9H23.5v-6.6C23.5,394.2,53.2,394.2,53.2,394.2z"/>
	<path class="st9" d="M88.2,421.1H64.7c0.2,2.3,1,4.1,2.4,5.5c1.4,1.3,3.2,2,5.3,2c3,0,5.2-1.3,6.4-3.9h8.8
		c-0.9,3.1-2.7,5.6-5.3,7.6c-2.6,2-5.9,3-9.7,3c-3.1,0-5.9-0.7-8.3-2.1c-2.5-1.4-4.4-3.3-5.7-5.8c-1.4-2.5-2.1-5.4-2.1-8.7
		s0.7-6.2,2-8.8c1.4-2.5,3.2-4.4,5.7-5.8c2.4-1.4,5.2-2,8.4-2s5.8,0.7,8.2,2c2.4,1.3,4.3,3.2,5.6,5.6c1.3,2.4,2,5.2,2,8.3
		C88.4,419.1,88.3,420.2,88.2,421.1L88.2,421.1z M80,415.6c0-2.1-0.8-3.8-2.3-5c-1.5-1.3-3.3-1.9-5.4-1.9s-3.7,0.6-5.1,1.8
		c-1.4,1.2-2.2,2.9-2.5,5.1H80z"/>
	<path class="st9" d="M93.7,409.9c1.4-2.5,3.2-4.4,5.6-5.8s5.1-2.1,8.2-2.1c4,0,7.3,1,9.9,3s4.4,4.8,5.2,8.4h-8.8
		c-0.5-1.4-1.2-2.5-2.3-3.3c-1.1-0.8-2.5-1.2-4.1-1.2c-2.3,0-4.2,0.8-5.5,2.5c-1.4,1.7-2,4.1-2,7.2s0.7,5.4,2,7.1
		c1.4,1.7,3.2,2.5,5.5,2.5c3.3,0,5.4-1.5,6.4-4.4h8.8c-0.9,3.5-2.6,6.2-5.3,8.3c-2.6,2-5.9,3.1-9.9,3.1c-3.1,0-5.8-0.7-8.2-2.1
		c-2.4-1.4-4.3-3.3-5.6-5.8c-1.4-2.5-2-5.4-2-8.7C91.6,415.3,92.3,412.4,93.7,409.9z"/>
	<path class="st9" d="M152.7,403.7c1.9,1.1,3.4,2.6,4.4,4.7s1.6,4.6,1.6,7.5v18.8h-8.1V417c0-2.6-0.6-4.5-1.9-5.9
		c-1.3-1.4-3-2.1-5.2-2.1s-4,0.7-5.3,2.1s-1.9,3.3-1.9,5.9v17.7h-8.1v-42.9h8.1v14.8c1-1.4,2.4-2.5,4.2-3.3c1.7-0.8,3.7-1.2,5.8-1.2
		C148.6,402.1,150.8,402.6,152.7,403.7z"/>
	<path class="st9" d="M192.9,405.7c2.4,2.4,3.5,5.8,3.5,10.1v18.8h-8.1V417c0-2.6-0.6-4.5-1.9-5.9c-1.3-1.4-3-2.1-5.2-2.1
		s-4,0.7-5.3,2.1s-1.9,3.3-1.9,5.9v17.7h-8.1v-32.1h8.1v4c1.1-1.4,2.5-2.5,4.1-3.3c1.7-0.8,3.5-1.2,5.5-1.2
		C187.5,402.1,190.6,403.3,192.9,405.7L192.9,405.7z"/>
	<path class="st9" d="M209.5,433.2c-2.5-1.4-4.4-3.3-5.8-5.8c-1.4-2.5-2.1-5.4-2.1-8.7s0.7-6.2,2.2-8.7s3.4-4.5,5.9-5.8
		c2.5-1.4,5.3-2.1,8.4-2.1s5.9,0.7,8.4,2.1s4.5,3.3,5.9,5.8c1.5,2.5,2.2,5.4,2.2,8.7s-0.7,6.2-2.2,8.7s-3.5,4.5-6,5.8
		c-2.5,1.4-5.4,2.1-8.5,2.1C214.8,435.2,212,434.5,209.5,433.2L209.5,433.2z M222,427.1c1.3-0.7,2.3-1.8,3.1-3.2
		c0.8-1.4,1.2-3.2,1.2-5.2c0-3.1-0.8-5.4-2.4-7c-1.6-1.6-3.6-2.5-5.9-2.5s-4.3,0.8-5.8,2.5c-1.6,1.6-2.3,4-2.3,7s0.8,5.4,2.3,7
		s3.5,2.5,5.8,2.5C219.3,428.2,220.7,427.8,222,427.1L222,427.1z"/>
	<path class="st9" d="M248.1,391.8v42.9H240v-42.9H248.1z"/>
	<path class="st9" d="M261.5,433.2c-2.5-1.4-4.4-3.3-5.8-5.8c-1.4-2.5-2.1-5.4-2.1-8.7s0.7-6.2,2.2-8.7s3.4-4.5,5.9-5.8
		c2.5-1.4,5.3-2.1,8.4-2.1s5.9,0.7,8.4,2.1s4.5,3.3,5.9,5.8c1.5,2.5,2.2,5.4,2.2,8.7s-0.7,6.2-2.2,8.7s-3.5,4.5-6,5.8
		c-2.5,1.4-5.4,2.1-8.5,2.1C266.7,435.2,263.9,434.5,261.5,433.2L261.5,433.2z M274,427.1c1.3-0.7,2.3-1.8,3.1-3.2
		c0.8-1.4,1.2-3.2,1.2-5.2c0-3.1-0.8-5.4-2.4-7s-3.6-2.5-5.9-2.5s-4.3,0.8-5.8,2.5c-1.6,1.6-2.3,4-2.3,7s0.8,5.4,2.3,7
		s3.5,2.5,5.8,2.5C271.3,428.2,272.7,427.8,274,427.1L274,427.1z"/>
	<path class="st9" d="M310.9,403.5c1.8,0.9,3.2,2.2,4.3,3.7v-4.6h8.2V435c0,3-0.6,5.6-1.8,8c-1.2,2.3-3,4.2-5.4,5.6
		s-5.3,2.1-8.7,2.1c-4.6,0-8.3-1.1-11.2-3.2c-2.9-2.1-4.6-5-5-8.7h8.1c0.4,1.5,1.3,2.6,2.8,3.5c1.4,0.9,3.1,1.3,5.1,1.3
		c2.4,0,4.3-0.7,5.7-2.1c1.5-1.4,2.2-3.5,2.2-6.4v-5c-1,1.5-2.5,2.8-4.3,3.8s-3.9,1.5-6.3,1.5c-2.7,0-5.2-0.7-7.4-2.1
		c-2.2-1.4-4-3.4-5.3-5.9s-1.9-5.4-1.9-8.7s0.6-6.1,1.9-8.6s3.1-4.4,5.3-5.8c2.2-1.4,4.7-2,7.5-2C307,402.1,309.1,402.5,310.9,403.5
		L310.9,403.5z M314,413.6c-0.8-1.4-1.8-2.5-3.1-3.2c-1.3-0.8-2.7-1.1-4.2-1.1s-2.9,0.4-4.2,1.1c-1.3,0.7-2.3,1.8-3.1,3.2
		c-0.8,1.4-1.2,3.1-1.2,5s0.4,3.6,1.2,5.1c0.8,1.5,1.8,2.6,3.1,3.3c1.3,0.8,2.7,1.2,4.1,1.2c1.5,0,2.9-0.4,4.2-1.1
		c1.3-0.8,2.4-1.8,3.1-3.2c0.8-1.4,1.2-3.1,1.2-5.1C315.2,416.7,314.8,415,314,413.6L314,413.6z"/>
	<path class="st9" d="M361.5,402.6l-19.9,47.3H333l7-16l-12.9-31.3h9.1l8.3,22.4l8.4-22.4H361.5z"/>
	<path class="st9" d="M403.4,394.2v6.6h-16.9v10.4h12.9v6.4h-12.9v17.1h-8.1v-40.5H403.4z"/>
	<path class="st9" d="M414.5,433.2c-2.5-1.4-4.4-3.3-5.8-5.8s-2.1-5.4-2.1-8.7s0.7-6.2,2.2-8.7c1.4-2.5,3.4-4.5,5.9-5.8
		c2.5-1.4,5.3-2.1,8.4-2.1s5.9,0.7,8.4,2.1s4.5,3.3,5.9,5.8s2.2,5.4,2.2,8.7s-0.7,6.2-2.2,8.7s-3.5,4.5-6,5.8
		c-2.5,1.4-5.4,2.1-8.5,2.1C419.8,435.2,417,434.5,414.5,433.2z M427,427.1c1.3-0.7,2.3-1.8,3.1-3.2s1.2-3.2,1.2-5.2
		c0-3.1-0.8-5.4-2.4-7s-3.6-2.5-5.9-2.5s-4.3,0.8-5.8,2.5c-1.6,1.6-2.3,4-2.3,7s0.8,5.4,2.3,7s3.5,2.5,5.8,2.5
		C424.3,428.2,425.7,427.8,427,427.1L427,427.1z"/>
	<path class="st9" d="M457.2,403.6c1.7-1,3.6-1.4,5.8-1.4v8.5h-2.1c-2.6,0-4.5,0.6-5.8,1.8c-1.3,1.2-1.9,3.3-1.9,6.3v16h-8.1v-32.1
		h8.1v5C454.2,405.9,455.6,404.5,457.2,403.6L457.2,403.6z"/>
	<path class="st9" d="M498.2,402.6v32.1H490v-4.1c-1,1.4-2.4,2.5-4.1,3.3s-3.5,1.2-5.5,1.2c-2.5,0-4.7-0.5-6.7-1.6
		c-1.9-1.1-3.5-2.6-4.6-4.7s-1.7-4.5-1.7-7.4v-18.8h8.1v17.7c0,2.6,0.6,4.5,1.9,5.9s3,2.1,5.2,2.1s4-0.7,5.3-2.1s1.9-3.3,1.9-5.9
		v-17.7H498.2L498.2,402.6z"/>
	<path class="st9" d="M555.1,405.7c2.4,2.4,3.6,5.8,3.6,10.1v18.8h-8.1V417c0-2.5-0.6-4.4-1.9-5.8s-3-2-5.2-2s-4,0.7-5.2,2
		c-1.3,1.3-1.9,3.3-1.9,5.8v17.7h-8.1V417c0-2.5-0.6-4.4-1.9-5.8c-1.3-1.3-3-2-5.2-2s-4,0.7-5.3,2s-1.9,3.3-1.9,5.8v17.7h-8.1v-32.1
		h8.1v3.9c1-1.4,2.4-2.4,4-3.2c1.6-0.8,3.5-1.2,5.4-1.2c2.5,0,4.8,0.5,6.7,1.6c2,1.1,3.5,2.6,4.6,4.6c1-1.9,2.6-3.3,4.6-4.5
		c2-1.1,4.1-1.7,6.5-1.7C549.5,402.1,552.7,403.3,555.1,405.7L555.1,405.7z"/>
</g>
<g>
	<path class="st8" d="M336.1,107.8c0-7.2,1.4-14.2,4-21.1s6.6-13.1,11.8-18.7c5.2-5.5,11.4-10,18.8-13.4c7.4-3.4,15.8-5.1,25.2-5.1
		c11.3,0,21.1,2.3,29.5,7c8.3,4.7,14.5,10.9,18.6,18.6l-24.6,17.5c-1.1-2.9-2.6-5.2-4.4-7.1c-1.8-1.9-3.8-3.3-6-4.5
		c-2.2-1.1-4.5-1.9-6.9-2.3c-2.4-0.4-4.6-0.7-6.9-0.7c-4.6,0-8.6,0.9-12,2.7c-3.4,1.8-6.1,4.2-8.2,7.1c-2.1,2.9-3.7,6.2-4.8,9.9
		c-1,3.7-1.6,7.3-1.6,11c0,4.1,0.6,8,1.8,11.7c1.2,3.7,3,7,5.3,9.9c2.3,2.9,5.1,5.1,8.5,6.9c3.4,1.7,7.1,2.6,11.3,2.6
		c2.2,0,4.5-0.2,6.8-0.7c2.3-0.5,4.5-1.3,6.7-2.5c2.1-1.2,4.1-2.6,5.8-4.5c1.7-1.8,3-4,4-6.7l26.2,15.7c-1.8,4.3-4.4,8.1-8,11.6
		c-3.6,3.4-7.6,6.3-12.2,8.6c-4.6,2.3-9.5,4.1-14.7,5.3c-5.2,1.2-10.3,1.8-15.3,1.8c-8.7,0-16.6-1.7-23.8-5.2
		c-7.2-3.5-13.4-8.1-18.6-13.8c-5.2-5.7-9.3-12.2-12.1-19.5C337.5,122.7,336.1,115.3,336.1,107.8L336.1,107.8z"/>
</g>
</svg>
