<?xml version="1.0" encoding="UTF-8"?><svg id="Layer_2" xmlns="http://www.w3.org/2000/svg" viewBox="0 0 965.4 450.7"><defs><style>.cls-1{fill:#fb5607;}.cls-2{fill:#fff;}.cls-3{fill:#ffbf0c;}.cls-4{fill:#ff006d;}.cls-5{fill:#dc4b06;}.cls-6{fill:#df0060;}.cls-7{fill:#dfa70b;}.cls-8{fill:#2f3b55;}.cls-9{fill:#8338ec;}.cls-10{fill:#7331cf;}.cls-11{isolation:isolate;}</style></defs><g id="Layer_1-2"><path class="cls-10" d="M727.5,81.2l48.8-48.8c43.2-43.2,113.3-43.2,156.5,0h0c43.2,43.2,43.2,113.3,0,156.5l-48.8,48.8c-43.2,43.2-113.3,43.2-156.5,0h0c-43.2-43.3-43.2-113.3,0-156.5Z"/><ellipse class="cls-9" cx="854.6" cy="110.8" rx="110.8" ry="110.5"/><path class="cls-6" d="M495.9,81.2l48.8-48.8c43.2-43.2,113.3-43.2,156.5,0h0c43.2,43.2,43.2,113.3,0,156.5l-48.8,48.8c-43.2,43.2-113.3,43.2-156.5,0h0c-43.2-43.2-43.2-113.3,0-156.5Z"/><ellipse class="cls-4" cx="622.7" cy="110.8" rx="110.8" ry="110.5"/><path class="cls-5" d="M264.2,81.6l48.8-48.8c43.2-43.2,113.3-43.2,156.5,0h0c43.2,43.2,43.2,113.3,0,156.5l-48.8,48.8c-43.2,43.2-113.3,43.2-156.5,0h0c-43.2-43.2-43.2-113.3,0-156.5Z"/><ellipse class="cls-1" cx="391.7" cy="110.8" rx="110.8" ry="110.5"/><path class="cls-7" d="M32.4,81.4l48.8-48.7c43.2-43.2,113.3-43.2,156.5,0h0c43.2,43.2,43.2,113.3,0,156.5l-48.8,48.8c-43.2,43.2-113.3,43.2-156.5,0h0c-43.2-43.3-43.2-113.4,0-156.6Z"/><ellipse class="cls-3" cx="160" cy="110.5" rx="110.8" ry="110.5"/><g class="cls-11"><path class="cls-2" d="M145.49,170.02V52.87h28.96v117.15h-28.96Z"/></g><g class="cls-11"><path class="cls-2" d="M667.39,81.38h-30.29v89.1h-28.96V81.38h-30.44v-28.05h89.69v28.05Z"/></g><g class="cls-11"><path class="cls-2" d="M819.96,168.96V51.81h72.32v28.05h-43.36v19.47h35.34v26.07h-35.34v43.56h-28.96Z"/></g><g class="cls-11"><path class="cls-8" d="M33.8,325.2v40.5h-8.1v-40.5h8.1Z"/><path class="cls-8" d="M68.3,336.7c2.4,2.4,3.5,5.8,3.5,10.1v18.8h-8.1v-17.6c0-2.6-.6-4.5-1.9-5.9-1.3-1.4-3-2.1-5.2-2.1s-4,.7-5.3,2.1-1.9,3.3-1.9,5.9v17.7h-8.2v-32.1h8.1v4c1.1-1.4,2.5-2.5,4.1-3.3,1.7-.8,3.5-1.2,5.5-1.2,3.9,0,7,1.2,9.4,3.6Z"/><path class="cls-8" d="M93.7,340.2h-5.6v25.5h-8.2v-25.5h-3.7v-6.7h3.7v-1.5c0-3.9,1.1-6.8,3.4-8.7,2.2-1.9,5.6-2.7,10.2-2.6v6.8c-2,0-3.3,.3-4.1,1-.8,.7-1.2,2-1.2,3.8v1.3h5.6v6.6h-.1Z"/><path class="cls-8" d="M104.3,364.2c-2.5-1.4-4.4-3.3-5.8-5.8s-2.1-5.4-2.1-8.7,.7-6.2,2.2-8.7,3.4-4.5,5.9-5.8c2.5-1.4,5.3-2.1,8.4-2.1s5.9,.7,8.4,2.1,4.5,3.3,5.9,5.8c1.5,2.5,2.2,5.4,2.2,8.7s-.7,6.2-2.2,8.7-3.5,4.5-6,5.8c-2.5,1.4-5.4,2.1-8.5,2.1-3.2-.1-5.9-.8-8.4-2.1Zm12.5-6.1c1.3-.7,2.3-1.8,3.1-3.2,.8-1.4,1.2-3.2,1.2-5.2,0-3.1-.8-5.4-2.4-7s-3.6-2.5-5.9-2.5-4.3,.8-5.8,2.5c-1.6,1.6-2.3,4-2.3,7s.8,5.4,2.3,7,3.5,2.5,5.8,2.5c1.3,0,2.7-.4,4-1.1Z"/><path class="cls-8" d="M147,334.6c1.7-1,3.6-1.4,5.8-1.4v8.5h-2.1c-2.6,0-4.5,.6-5.8,1.8-1.3,1.2-1.9,3.3-1.9,6.3v16h-8.1v-32.1h8.1v5c1-1.8,2.3-3.2,4-4.1Z"/><path class="cls-8" d="M207.1,336.7c2.4,2.4,3.6,5.8,3.6,10.1v18.8h-8.1v-17.6c0-2.5-.6-4.4-1.9-5.8s-3-2-5.2-2-4,.7-5.2,2c-1.3,1.3-1.9,3.3-1.9,5.8v17.7h-8.2v-17.7c0-2.5-.6-4.4-1.9-5.8-1.3-1.3-3-2-5.2-2s-4,.7-5.3,2-1.9,3.3-1.9,5.8v17.7h-8.1v-32.1h8.1v3.9c1-1.4,2.4-2.4,4-3.2,1.6-.8,3.5-1.2,5.4-1.2,2.5,0,4.8,.5,6.7,1.6,2,1.1,3.5,2.6,4.6,4.6,1-1.9,2.6-3.3,4.6-4.5,2-1.1,4.1-1.7,6.5-1.7,3.8,0,7,1.2,9.4,3.6Z"/><path class="cls-8" d="M217.7,340.9c1.3-2.5,3.1-4.4,5.3-5.8s4.7-2,7.5-2c2.4,0,4.5,.5,6.3,1.5s3.2,2.2,4.3,3.7v-4.6h8.2v32.1h-8.2v-4.8c-1,1.5-2.5,2.8-4.3,3.7-1.8,1-4,1.5-6.4,1.5-2.7,0-5.2-.7-7.4-2.1s-4-3.4-5.3-5.9-1.9-5.4-1.9-8.7c0-3.2,.6-6.1,1.9-8.6Zm22.2,3.7c-.8-1.4-1.8-2.5-3.1-3.2-1.3-.8-2.7-1.1-4.2-1.1s-2.9,.4-4.2,1.1-2.3,1.8-3.1,3.2c-.8,1.4-1.2,3.1-1.2,5s.4,3.6,1.2,5.1,1.8,2.6,3.1,3.3c1.3,.8,2.7,1.2,4.1,1.2,1.5,0,2.9-.4,4.2-1.1,1.3-.8,2.4-1.8,3.1-3.2,.8-1.4,1.2-3.1,1.2-5.1,.1-2.1-.3-3.8-1.1-5.2Z"/><path class="cls-8" d="M266,340.2v15.5c0,1.1,.3,1.9,.8,2.3,.5,.5,1.4,.7,2.6,.7h3.8v6.8h-5.1c-6.8,0-10.3-3.3-10.3-10v-15.5h-3.8v-6.7h3.8v-7.9h8.2v7.9h7.2v6.7h-7.2v.2Z"/><path class="cls-8" d="M279.1,328.4c-.9-.9-1.4-2-1.4-3.4s.5-2.5,1.4-3.4,2.1-1.4,3.6-1.4c1.4,0,2.6,.5,3.6,1.4,.9,.9,1.4,2,1.4,3.4s-.5,2.5-1.4,3.4-2.1,1.4-3.6,1.4-2.7-.5-3.6-1.4Zm7.5,5.2v32.1h-8.1v-32.1h8.1Z"/><path class="cls-8" d="M300,364.2c-2.5-1.4-4.4-3.3-5.8-5.8s-2.1-5.4-2.1-8.7,.7-6.2,2.2-8.7,3.4-4.5,5.9-5.8c2.5-1.4,5.3-2.1,8.4-2.1s5.9,.7,8.4,2.1,4.5,3.3,5.9,5.8,2.2,5.4,2.2,8.7-.7,6.2-2.2,8.7-3.5,4.5-6,5.8c-2.5,1.4-5.4,2.1-8.5,2.1-3.2-.1-5.9-.8-8.4-2.1Zm12.5-6.1c1.3-.7,2.3-1.8,3.1-3.2,.8-1.4,1.2-3.2,1.2-5.2,0-3.1-.8-5.4-2.4-7s-3.6-2.5-5.9-2.5-4.3,.8-5.8,2.5c-1.6,1.6-2.3,4-2.3,7s.8,5.4,2.3,7,3.5,2.5,5.8,2.5c1.3,0,2.7-.4,4-1.1Z"/><path class="cls-8" d="M357.6,336.7c2.4,2.4,3.5,5.8,3.5,10.1v18.8h-8.1v-17.6c0-2.6-.6-4.5-1.9-5.9s-3-2.1-5.2-2.1-4,.7-5.3,2.1-1.9,3.3-1.9,5.9v17.7h-8.1v-32.1h8.1v4c1.1-1.4,2.5-2.5,4.1-3.3,1.7-.8,3.5-1.2,5.5-1.2,3.8,0,6.9,1.2,9.3,3.6Z"/><path class="cls-8" d="M412.6,365.7l-4.4-4.3c-3.8,3.4-8.3,5-13.7,5-3,0-5.6-.5-7.9-1.5s-4-2.5-5.2-4.4-1.9-4-1.9-6.5c0-2.7,.8-5.1,2.3-7.2s3.7-3.8,6.7-5.2c-1-1.3-1.8-2.5-2.3-3.7s-.7-2.4-.7-3.8c0-1.9,.5-3.5,1.5-5s2.3-2.7,4.1-3.5c1.8-.8,3.9-1.3,6.3-1.3s4.5,.5,6.3,1.4,3,2.2,3.9,3.7,1.2,3.3,1.1,5.2h-7.9c0-1.3-.3-2.3-.9-2.9-.7-.7-1.5-1-2.7-1-1.1,0-2,.3-2.7,1-.7,.6-1.1,1.5-1.1,2.5s.3,1.9,.9,2.9c.6,.9,1.5,2.1,2.8,3.5l10.2,10.1c.1-.1,.1-.2,.2-.2,0-.1,.1-.2,.1-.2l3.3-5.5h8.5l-4.1,7.1c-.8,1.5-1.6,2.9-2.5,4.3l9.8,9.7h-10v-.2Zm-9.5-9.4l-10-9.9c-3.8,1.7-5.6,4-5.6,7.1,0,1.7,.7,3.2,2,4.4s3.1,1.8,5.2,1.8c3.2,0,6-1.1,8.4-3.4Z"/><path class="cls-8" d="M440,334.7c1.8-3.2,4.3-5.6,7.4-7.4s6.6-2.6,10.5-2.6c4.5,0,8.5,1.2,11.9,3.5s5.8,5.5,7.1,9.6h-9.3c-.9-1.9-2.2-3.4-3.9-4.3-1.7-1-3.6-1.5-5.8-1.5-2.4,0-4.5,.6-6.3,1.7s-3.3,2.7-4.3,4.7-1.5,4.4-1.5,7.1,.5,5,1.5,7,2.5,3.6,4.3,4.7,3.9,1.7,6.3,1.7c2.2,0,4.1-.5,5.8-1.5s3-2.4,3.9-4.4h9.3c-1.4,4.1-3.7,7.4-7.1,9.7-3.4,2.3-7.4,3.5-11.9,3.5-3.9,0-7.4-.9-10.5-2.6-3.1-1.8-5.6-4.2-7.4-7.3-1.8-3.1-2.7-6.7-2.7-10.7s.9-7.7,2.7-10.9Z"/><path class="cls-8" d="M489.1,364.2c-2.5-1.4-4.4-3.3-5.8-5.8s-2.1-5.4-2.1-8.7,.7-6.2,2.2-8.7c1.4-2.5,3.4-4.5,5.9-5.8,2.5-1.4,5.3-2.1,8.4-2.1s5.9,.7,8.4,2.1,4.5,3.3,5.9,5.8c1.4,2.5,2.2,5.4,2.2,8.7s-.7,6.2-2.2,8.7-3.5,4.5-6,5.8c-2.5,1.4-5.4,2.1-8.5,2.1-3.1-.1-5.9-.8-8.4-2.1Zm12.5-6.1c1.3-.7,2.3-1.8,3.1-3.2s1.2-3.2,1.2-5.2c0-3.1-.8-5.4-2.4-7s-3.6-2.5-5.9-2.5-4.3,.8-5.8,2.5c-1.6,1.6-2.3,4-2.3,7s.8,5.4,2.3,7,3.5,2.5,5.8,2.5c1.3,0,2.7-.4,4-1.1Z"/><path class="cls-8" d="M569.1,336.7c2.4,2.4,3.6,5.8,3.6,10.1v18.8h-8.1v-17.6c0-2.5-.6-4.4-1.9-5.8s-3-2-5.2-2-4,.7-5.2,2c-1.3,1.3-1.9,3.3-1.9,5.8v17.7h-8.1v-17.7c0-2.5-.6-4.4-1.9-5.8-1.3-1.3-3-2-5.2-2s-4,.7-5.3,2-1.9,3.3-1.9,5.8v17.7h-8.1v-32.1h8.1v3.9c1-1.4,2.4-2.4,4-3.2,1.6-.8,3.5-1.2,5.4-1.2,2.5,0,4.8,.5,6.7,1.6,2,1.1,3.5,2.6,4.6,4.6,1-1.9,2.6-3.3,4.6-4.5,2-1.1,4.1-1.7,6.5-1.7,3.7,0,6.8,1.2,9.3,3.6Z"/><path class="cls-8" d="M629.3,336.7c2.4,2.4,3.6,5.8,3.6,10.1v18.8h-8.1v-17.6c0-2.5-.6-4.4-1.9-5.8s-3-2-5.2-2-4,.7-5.2,2c-1.3,1.3-1.9,3.3-1.9,5.8v17.7h-8.1v-17.7c0-2.5-.6-4.4-1.9-5.8-1.3-1.3-3-2-5.2-2s-4,.7-5.3,2-1.9,3.3-1.9,5.8v17.7h-8.1v-32.1h8.1v3.9c1-1.4,2.4-2.4,4-3.2,1.6-.8,3.5-1.2,5.4-1.2,2.5,0,4.8,.5,6.7,1.6,2,1.1,3.5,2.6,4.6,4.6,1-1.9,2.6-3.3,4.6-4.5,2-1.1,4.1-1.7,6.5-1.7,3.7,0,6.9,1.2,9.3,3.6Z"/><path class="cls-8" d="M670.4,333.6v32.1h-8.2v-4.1c-1,1.4-2.4,2.5-4.1,3.3-1.7,.8-3.5,1.2-5.5,1.2-2.5,0-4.7-.5-6.7-1.6-1.9-1.1-3.5-2.6-4.6-4.7s-1.7-4.5-1.7-7.4v-18.8h8.1v17.7c0,2.6,.6,4.5,1.9,5.9,1.3,1.4,3,2.1,5.2,2.1s4-.7,5.3-2.1,1.9-3.3,1.9-5.9v-17.7h8.4Z"/><path class="cls-8" d="M704.9,336.7c2.4,2.4,3.5,5.8,3.5,10.1v18.8h-8.1v-17.6c0-2.6-.6-4.5-1.9-5.9-1.3-1.4-3-2.1-5.2-2.1s-4,.7-5.3,2.1-1.9,3.3-1.9,5.9v17.7h-8.1v-32.1h8.1v4c1.1-1.4,2.5-2.5,4.1-3.3,1.7-.8,3.5-1.2,5.5-1.2,3.8,0,6.9,1.2,9.3,3.6Z"/><path class="cls-8" d="M716.1,328.4c-.9-.9-1.4-2-1.4-3.4s.5-2.5,1.4-3.4,2.1-1.4,3.6-1.4c1.4,0,2.6,.5,3.6,1.4,.9,.9,1.4,2,1.4,3.4s-.5,2.5-1.4,3.4-2.1,1.4-3.6,1.4-2.7-.5-3.6-1.4Zm7.6,5.2v32.1h-8.1v-32.1h8.1Z"/><path class="cls-8" d="M731,340.9c1.4-2.5,3.2-4.4,5.6-5.8,2.4-1.4,5.1-2.1,8.2-2.1,4,0,7.3,1,9.9,3,2.6,2,4.4,4.8,5.2,8.4h-8.8c-.5-1.4-1.2-2.5-2.3-3.3s-2.5-1.2-4.1-1.2c-2.3,0-4.2,.8-5.5,2.5-1.4,1.7-2,4.1-2,7.2s.7,5.4,2,7.1c1.4,1.7,3.2,2.5,5.5,2.5,3.3,0,5.4-1.5,6.4-4.4h8.8c-.9,3.5-2.6,6.2-5.3,8.3-2.6,2-5.9,3.1-9.9,3.1-3.1,0-5.8-.7-8.2-2.1s-4.3-3.3-5.6-5.8c-1.4-2.5-2-5.4-2-8.7,.1-3.3,.8-6.2,2.1-8.7Z"/><path class="cls-8" d="M765.3,340.9c1.3-2.5,3.1-4.4,5.3-5.8s4.7-2,7.5-2c2.4,0,4.5,.5,6.3,1.5s3.2,2.2,4.3,3.7v-4.6h8.2v32.1h-8.2v-4.8c-1,1.5-2.5,2.8-4.3,3.7-1.8,1-4,1.5-6.4,1.5-2.7,0-5.2-.7-7.4-2.1s-4-3.4-5.3-5.9-1.9-5.4-1.9-8.7c-.1-3.2,.6-6.1,1.9-8.6Zm22.2,3.7c-.8-1.4-1.8-2.5-3.1-3.2-1.3-.8-2.7-1.1-4.2-1.1s-2.9,.4-4.2,1.1-2.3,1.8-3.1,3.2c-.8,1.4-1.2,3.1-1.2,5s.4,3.6,1.2,5.1,1.8,2.6,3.1,3.3c1.3,.8,2.7,1.2,4.1,1.2,1.5,0,2.9-.4,4.2-1.1,1.3-.8,2.4-1.8,3.1-3.2,.8-1.4,1.2-3.1,1.2-5.1,0-2.1-.4-3.8-1.1-5.2Z"/><path class="cls-8" d="M813.6,340.2v15.5c0,1.1,.3,1.9,.8,2.3,.5,.5,1.4,.7,2.6,.7h3.8v6.8h-5.1c-6.8,0-10.3-3.3-10.3-10v-15.5h-3.8v-6.7h3.8v-7.9h8.2v7.9h7.2v6.7h-7.2v.2Z"/><path class="cls-8" d="M826.6,328.4c-.9-.9-1.4-2-1.4-3.4s.5-2.5,1.4-3.4,2.1-1.4,3.6-1.4c1.4,0,2.6,.5,3.6,1.4,.9,.9,1.4,2,1.4,3.4s-.5,2.5-1.4,3.4-2.1,1.4-3.6,1.4c-1.4,0-2.6-.5-3.6-1.4Zm7.6,5.2v32.1h-8.1v-32.1h8.1Z"/><path class="cls-8" d="M847.5,364.2c-2.5-1.4-4.4-3.3-5.8-5.8-1.4-2.5-2.1-5.4-2.1-8.7s.7-6.2,2.2-8.7c1.4-2.5,3.4-4.5,5.9-5.8,2.5-1.4,5.3-2.1,8.4-2.1s5.9,.7,8.4,2.1,4.5,3.3,5.9,5.8,2.2,5.4,2.2,8.7-.7,6.2-2.2,8.7-3.5,4.5-6,5.8c-2.5,1.4-5.4,2.1-8.5,2.1-3.1-.1-5.9-.8-8.4-2.1Zm12.5-6.1c1.3-.7,2.3-1.8,3.1-3.2s1.2-3.2,1.2-5.2c0-3.1-.8-5.4-2.4-7-1.6-1.6-3.6-2.5-5.9-2.5s-4.3,.8-5.8,2.5c-1.6,1.6-2.3,4-2.3,7s.8,5.4,2.3,7,3.5,2.5,5.8,2.5c1.4,0,2.8-.4,4-1.1Z"/><path class="cls-8" d="M905.1,336.7c2.4,2.4,3.5,5.8,3.5,10.1v18.8h-8.1v-17.6c0-2.6-.6-4.5-1.9-5.9-1.3-1.4-3-2.1-5.2-2.1s-4,.7-5.3,2.1-1.9,3.3-1.9,5.9v17.7h-8.1v-32.1h8.1v4c1.1-1.4,2.5-2.5,4.1-3.3,1.7-.8,3.5-1.2,5.5-1.2,3.9,0,7,1.2,9.3,3.6Z"/><path class="cls-8" d="M921,364.8c-2.1-.9-3.7-2.2-5-3.9-1.2-1.6-1.9-3.4-2-5.4h8.2c.2,1.2,.8,2.3,1.8,3.1,1.1,.8,2.4,1.2,4,1.2,1.5,0,2.8-.3,3.6-.9,.9-.6,1.3-1.4,1.3-2.4s-.5-1.8-1.6-2.3-2.8-1.1-5.1-1.7c-2.4-.6-4.4-1.2-5.9-1.8-1.5-.6-2.8-1.6-3.9-2.8-1.1-1.3-1.7-3-1.7-5.2,0-1.8,.5-3.4,1.5-4.9s2.5-2.6,4.4-3.5,4.2-1.3,6.8-1.3c3.8,0,6.9,1,9.2,2.9s3.5,4.5,3.8,7.7h-7.8c-.1-1.3-.6-2.3-1.6-3-.9-.8-2.2-1.1-3.8-1.1-1.5,0-2.6,.3-3.4,.8-.8,.5-1.2,1.3-1.2,2.3,0,1.1,.5,1.9,1.6,2.5s2.8,1.1,5,1.7c2.3,.6,4.2,1.2,5.7,1.8,1.5,.6,2.8,1.6,3.9,2.9,1.1,1.3,1.7,3,1.7,5.1,0,1.9-.5,3.5-1.5,5s-2.5,2.6-4.4,3.5-4.1,1.2-6.7,1.2c-2.4-.1-4.8-.5-6.9-1.5Z"/></g><g class="cls-11"><path class="cls-8" d="M53.2,394.2v6.6h-10.8v33.9h-8.1v-33.9h-10.8v-6.6h29.7Z"/><path class="cls-8" d="M88.2,421.1h-23.5c.2,2.3,1,4.1,2.4,5.5,1.4,1.3,3.2,2,5.3,2,3,0,5.2-1.3,6.4-3.9h8.8c-.9,3.1-2.7,5.6-5.3,7.6-2.6,2-5.9,3-9.7,3-3.1,0-5.9-.7-8.3-2.1-2.5-1.4-4.4-3.3-5.7-5.8-1.4-2.5-2.1-5.4-2.1-8.7s.7-6.2,2-8.8c1.4-2.5,3.2-4.4,5.7-5.8,2.4-1.4,5.2-2,8.4-2s5.8,.7,8.2,2c2.4,1.3,4.3,3.2,5.6,5.6,1.3,2.4,2,5.2,2,8.3,0,1.1-.1,2.2-.2,3.1Zm-8.2-5.5c0-2.1-.8-3.8-2.3-5-1.5-1.3-3.3-1.9-5.4-1.9s-3.7,.6-5.1,1.8c-1.4,1.2-2.2,2.9-2.5,5.1h15.3Z"/><path class="cls-8" d="M93.7,409.9c1.4-2.5,3.2-4.4,5.6-5.8s5.1-2.1,8.2-2.1c4,0,7.3,1,9.9,3s4.4,4.8,5.2,8.4h-8.8c-.5-1.4-1.2-2.5-2.3-3.3-1.1-.8-2.5-1.2-4.1-1.2-2.3,0-4.2,.8-5.5,2.5-1.4,1.7-2,4.1-2,7.2s.7,5.4,2,7.1c1.4,1.7,3.2,2.5,5.5,2.5,3.3,0,5.4-1.5,6.4-4.4h8.8c-.9,3.5-2.6,6.2-5.3,8.3-2.6,2-5.9,3.1-9.9,3.1-3.1,0-5.8-.7-8.2-2.1-2.4-1.4-4.3-3.3-5.6-5.8-1.4-2.5-2-5.4-2-8.7,0-3.3,.7-6.2,2.1-8.7Z"/><path class="cls-8" d="M152.7,403.7c1.9,1.1,3.4,2.6,4.4,4.7s1.6,4.6,1.6,7.5v18.8h-8.1v-17.7c0-2.6-.6-4.5-1.9-5.9-1.3-1.4-3-2.1-5.2-2.1s-4,.7-5.3,2.1-1.9,3.3-1.9,5.9v17.7h-8.1v-42.9h8.1v14.8c1-1.4,2.4-2.5,4.2-3.3,1.7-.8,3.7-1.2,5.8-1.2,2.3,0,4.5,.5,6.4,1.6Z"/><path class="cls-8" d="M192.9,405.7c2.4,2.4,3.5,5.8,3.5,10.1v18.8h-8.1v-17.6c0-2.6-.6-4.5-1.9-5.9-1.3-1.4-3-2.1-5.2-2.1s-4,.7-5.3,2.1-1.9,3.3-1.9,5.9v17.7h-8.1v-32.1h8.1v4c1.1-1.4,2.5-2.5,4.1-3.3,1.7-.8,3.5-1.2,5.5-1.2,3.9,0,7,1.2,9.3,3.6Z"/><path class="cls-8" d="M209.5,433.2c-2.5-1.4-4.4-3.3-5.8-5.8-1.4-2.5-2.1-5.4-2.1-8.7s.7-6.2,2.2-8.7,3.4-4.5,5.9-5.8c2.5-1.4,5.3-2.1,8.4-2.1s5.9,.7,8.4,2.1,4.5,3.3,5.9,5.8c1.5,2.5,2.2,5.4,2.2,8.7s-.7,6.2-2.2,8.7-3.5,4.5-6,5.8c-2.5,1.4-5.4,2.1-8.5,2.1-3.1-.1-5.9-.8-8.4-2.1Zm12.5-6.1c1.3-.7,2.3-1.8,3.1-3.2,.8-1.4,1.2-3.2,1.2-5.2,0-3.1-.8-5.4-2.4-7-1.6-1.6-3.6-2.5-5.9-2.5s-4.3,.8-5.8,2.5c-1.6,1.6-2.3,4-2.3,7s.8,5.4,2.3,7,3.5,2.5,5.8,2.5c1.3,0,2.7-.4,4-1.1Z"/><path class="cls-8" d="M248.1,391.8v42.9h-8.1v-42.9h8.1Z"/><path class="cls-8" d="M261.5,433.2c-2.5-1.4-4.4-3.3-5.8-5.8-1.4-2.5-2.1-5.4-2.1-8.7s.7-6.2,2.2-8.7,3.4-4.5,5.9-5.8c2.5-1.4,5.3-2.1,8.4-2.1s5.9,.7,8.4,2.1,4.5,3.3,5.9,5.8c1.5,2.5,2.2,5.4,2.2,8.7s-.7,6.2-2.2,8.7-3.5,4.5-6,5.8c-2.5,1.4-5.4,2.1-8.5,2.1-3.2-.1-6-.8-8.4-2.1Zm12.5-6.1c1.3-.7,2.3-1.8,3.1-3.2,.8-1.4,1.2-3.2,1.2-5.2,0-3.1-.8-5.4-2.4-7s-3.6-2.5-5.9-2.5-4.3,.8-5.8,2.5c-1.6,1.6-2.3,4-2.3,7s.8,5.4,2.3,7,3.5,2.5,5.8,2.5c1.3,0,2.7-.4,4-1.1Z"/><path class="cls-8" d="M310.9,403.5c1.8,.9,3.2,2.2,4.3,3.7v-4.6h8.2v32.4c0,3-.6,5.6-1.8,8-1.2,2.3-3,4.2-5.4,5.6s-5.3,2.1-8.7,2.1c-4.6,0-8.3-1.1-11.2-3.2-2.9-2.1-4.6-5-5-8.7h8.1c.4,1.5,1.3,2.6,2.8,3.5,1.4,.9,3.1,1.3,5.1,1.3,2.4,0,4.3-.7,5.7-2.1,1.5-1.4,2.2-3.5,2.2-6.4v-5c-1,1.5-2.5,2.8-4.3,3.8s-3.9,1.5-6.3,1.5c-2.7,0-5.2-.7-7.4-2.1-2.2-1.4-4-3.4-5.3-5.9s-1.9-5.4-1.9-8.7,.6-6.1,1.9-8.6,3.1-4.4,5.3-5.8c2.2-1.4,4.7-2,7.5-2,2.3-.2,4.4,.2,6.2,1.2Zm3.1,10.1c-.8-1.4-1.8-2.5-3.1-3.2-1.3-.8-2.7-1.1-4.2-1.1s-2.9,.4-4.2,1.1c-1.3,.7-2.3,1.8-3.1,3.2-.8,1.4-1.2,3.1-1.2,5s.4,3.6,1.2,5.1c.8,1.5,1.8,2.6,3.1,3.3,1.3,.8,2.7,1.2,4.1,1.2,1.5,0,2.9-.4,4.2-1.1,1.3-.8,2.4-1.8,3.1-3.2,.8-1.4,1.2-3.1,1.2-5.1,.1-2.1-.3-3.8-1.1-5.2Z"/><path class="cls-8" d="M361.5,402.6l-19.9,47.3h-8.6l7-16-12.9-31.3h9.1l8.3,22.4,8.4-22.4h8.6Z"/><path class="cls-8" d="M403.4,394.2v6.6h-16.9v10.4h12.9v6.4h-12.9v17.1h-8.1v-40.5h25Z"/><path class="cls-8" d="M414.5,433.2c-2.5-1.4-4.4-3.3-5.8-5.8s-2.1-5.4-2.1-8.7,.7-6.2,2.2-8.7c1.4-2.5,3.4-4.5,5.9-5.8,2.5-1.4,5.3-2.1,8.4-2.1s5.9,.7,8.4,2.1,4.5,3.3,5.9,5.8,2.2,5.4,2.2,8.7-.7,6.2-2.2,8.7-3.5,4.5-6,5.8c-2.5,1.4-5.4,2.1-8.5,2.1-3.1-.1-5.9-.8-8.4-2.1Zm12.5-6.1c1.3-.7,2.3-1.8,3.1-3.2s1.2-3.2,1.2-5.2c0-3.1-.8-5.4-2.4-7s-3.6-2.5-5.9-2.5-4.3,.8-5.8,2.5c-1.6,1.6-2.3,4-2.3,7s.8,5.4,2.3,7,3.5,2.5,5.8,2.5c1.3,0,2.7-.4,4-1.1Z"/><path class="cls-8" d="M457.2,403.6c1.7-1,3.6-1.4,5.8-1.4v8.5h-2.1c-2.6,0-4.5,.6-5.8,1.8-1.3,1.2-1.9,3.3-1.9,6.3v16h-8.1v-32.1h8.1v5c1-1.8,2.4-3.2,4-4.1Z"/><path class="cls-8" d="M498.2,402.6v32.1h-8.2v-4.1c-1,1.4-2.4,2.5-4.1,3.3s-3.5,1.2-5.5,1.2c-2.5,0-4.7-.5-6.7-1.6-1.9-1.1-3.5-2.6-4.6-4.7s-1.7-4.5-1.7-7.4v-18.8h8.1v17.7c0,2.6,.6,4.5,1.9,5.9s3,2.1,5.2,2.1,4-.7,5.3-2.1,1.9-3.3,1.9-5.9v-17.7h8.4Z"/><path class="cls-8" d="M555.1,405.7c2.4,2.4,3.6,5.8,3.6,10.1v18.8h-8.1v-17.6c0-2.5-.6-4.4-1.9-5.8s-3-2-5.2-2-4,.7-5.2,2c-1.3,1.3-1.9,3.3-1.9,5.8v17.7h-8.1v-17.7c0-2.5-.6-4.4-1.9-5.8-1.3-1.3-3-2-5.2-2s-4,.7-5.3,2-1.9,3.3-1.9,5.8v17.7h-8.1v-32.1h8.1v3.9c1-1.4,2.4-2.4,4-3.2,1.6-.8,3.5-1.2,5.4-1.2,2.5,0,4.8,.5,6.7,1.6,2,1.1,3.5,2.6,4.6,4.6,1-1.9,2.6-3.3,4.6-4.5,2-1.1,4.1-1.7,6.5-1.7,3.7,0,6.9,1.2,9.3,3.6Z"/></g><g class="cls-11"><path class="cls-2" d="M336.07,107.85c0-7.15,1.35-14.19,4.04-21.12,2.69-6.93,6.63-13.14,11.8-18.65,5.17-5.5,11.44-9.95,18.81-13.37,7.37-3.41,15.78-5.11,25.25-5.11,11.33,0,21.15,2.34,29.45,7.01,8.3,4.68,14.49,10.86,18.56,18.56l-24.58,17.49c-1.1-2.86-2.56-5.22-4.37-7.09-1.81-1.87-3.82-3.35-6.02-4.46-2.2-1.1-4.48-1.87-6.85-2.31-2.37-.44-4.65-.66-6.85-.66-4.62,0-8.61,.91-11.96,2.72-3.36,1.82-6.11,4.18-8.25,7.1-2.15,2.92-3.74,6.22-4.79,9.9-1.05,3.69-1.57,7.34-1.57,10.97,0,4.07,.6,7.98,1.82,11.71,1.21,3.74,2.97,7.04,5.28,9.9,2.31,2.86,5.14,5.14,8.5,6.85,3.35,1.71,7.12,2.56,11.3,2.56,2.2,0,4.46-.25,6.77-.74,2.31-.5,4.54-1.32,6.68-2.47,2.14-1.16,4.07-2.64,5.77-4.46,1.7-1.82,3.05-4.04,4.04-6.68l26.23,15.67c-1.76,4.29-4.43,8.14-8,11.55-3.58,3.41-7.65,6.27-12.21,8.58-4.57,2.31-9.46,4.07-14.69,5.28-5.23,1.21-10.31,1.82-15.26,1.82-8.69,0-16.64-1.73-23.84-5.2-7.21-3.47-13.42-8.06-18.65-13.78-5.23-5.72-9.27-12.21-12.13-19.47-2.86-7.26-4.29-14.63-4.29-22.11Z"/></g></g></svg>